<svg width="14" height="14" viewBox="0 0 14 14" fill="none" xmlns="http://www.w3.org/2000/svg">
<path d="M12.8334 7.00033C12.8334 10.222 10.2217 12.8337 7.00002 12.8337C3.77836 12.8337 1.16669 10.222 1.16669 7.00033C1.16669 3.77866 3.77836 1.16699 7.00002 1.16699C10.2217 1.16699 12.8334 3.77866 12.8334 7.00033Z" stroke="#8EC9ED"/>
<path d="M8.58095 5.86893C8.52314 5.42405 8.01232 4.70525 7.0938 4.70523C6.02654 4.70522 5.57746 5.29631 5.48634 5.59186C5.34418 5.98717 5.37261 6.79993 6.62358 6.88854C8.18732 6.99937 8.81376 7.18394 8.73408 8.14096C8.65434 9.09792 7.78266 9.30471 7.0938 9.28248C6.40489 9.26037 5.27779 8.94392 5.23405 8.09272M6.98449 4.08215V4.70735M6.98449 9.27677V9.91546" stroke="#8EC9ED" stroke-linecap="round"/>
</svg>
