<svg width="16" height="16" viewBox="0 0 16 16" fill="none" xmlns="http://www.w3.org/2000/svg">
<path d="M4.7168 2.58936C6.85825 3.2232 9.14171 3.2232 11.2832 2.58936C13.0113 2.07785 13.8753 1.82209 14.271 2.13947C14.6666 2.45686 14.6666 3.27182 14.6666 4.90171V11.0983C14.6666 12.7282 14.6666 13.5431 14.271 13.8605C13.8753 14.1779 13.0112 13.9221 11.2832 13.4107C9.14171 12.7768 6.85825 12.7768 4.7168 13.4107C2.98868 13.9221 2.12462 14.1779 1.72897 13.8605C1.33331 13.5431 1.33331 12.7282 1.33331 11.0983V4.90171C1.33331 3.27182 1.33331 2.45686 1.72897 2.13947C2.12462 1.82209 2.98868 2.07785 4.7168 2.58936Z" stroke="#7EFFEC"/>
<path d="M4.66669 13.3333C7.29795 10.5617 10.255 6.886 14.6667 9.6428" stroke="#7EFFEC"/>
<path d="M6 5.66666C6 6.21894 5.55229 6.66666 5 6.66666C4.44771 6.66666 4 6.21894 4 5.66666C4 5.11437 4.44771 4.66666 5 4.66666C5.55229 4.66666 6 5.11437 6 5.66666Z" stroke="#7EFFEC" stroke-linecap="round" stroke-linejoin="round"/>
</svg>
