<svg width="14" height="14" viewBox="0 0 14 14" fill="none" xmlns="http://www.w3.org/2000/svg">
<path d="M3.83692 9.03066C3.01164 9.52206 0.847795 10.5255 2.16572 11.7811C2.80952 12.3944 3.52654 12.8331 4.42801 12.8331H9.57198C10.4735 12.8331 11.1905 12.3944 11.8343 11.7811C13.1522 10.5255 10.9884 9.52206 10.1631 9.03066C8.2278 7.87829 5.7722 7.87829 3.83692 9.03066Z" stroke="#8EC9ED" stroke-linecap="round" stroke-linejoin="round"/>
<path d="M9.625 3.79138C9.625 5.24113 8.44976 6.41638 7 6.41638C5.55025 6.41638 4.375 5.24113 4.375 3.79138C4.375 2.34164 5.55025 1.16638 7 1.16638C8.44976 1.16638 9.625 2.34164 9.625 3.79138Z" stroke="#8EC9ED"/>
</svg>
