<svg width="17" height="12" viewBox="0 0 17 12" fill="none" xmlns="http://www.w3.org/2000/svg">
<path d="M3.10426 11.044C3.01896 11.168 2.87813 11.242 2.72765 11.242H1.40105C1.0268 11.242 0.811123 10.8169 1.03215 10.5149L4.25461 6.1117C4.27911 6.07822 4.29231 6.03782 4.29231 5.99634C4.29231 5.95317 4.27801 5.91122 4.25165 5.87704L2.32205 3.37542C2.09023 3.07488 2.30446 2.63907 2.68402 2.63907H3.99288C4.13713 2.63907 4.27291 2.70715 4.3592 2.82274L5.80929 4.76514C5.83325 4.79724 5.87095 4.81614 5.911 4.81614C5.95281 4.81614 5.99193 4.79556 6.01561 4.7611L8.63061 0.956183C8.71589 0.8321 8.8568 0.757965 9.00736 0.757965H10.3383C10.7117 0.757965 10.9276 1.1814 10.7083 1.48361L7.48986 5.91851C7.46563 5.9519 7.45258 5.99211 7.45258 6.03337C7.45258 6.07676 7.467 6.11892 7.49359 6.15321L9.40912 8.62364C9.64203 8.92401 9.42795 9.3609 9.04786 9.3609H7.74345C7.59838 9.3609 7.46191 9.29204 7.37573 9.17533L5.93547 7.22518C5.91161 7.19286 5.87382 7.1738 5.83365 7.1738C5.79199 7.1738 5.75299 7.1943 5.72938 7.22862L3.10426 11.044Z" fill="#FDEB56"/>
<path d="M12.0656 8.90376C12.0656 9.15623 11.8609 9.3609 11.6085 9.3609H10.6366C10.3841 9.3609 10.1795 9.15623 10.1795 8.90376V3.09622C10.1795 2.84374 10.3841 2.63907 10.6366 2.63907H13.9016C15.4967 2.63907 16.5 3.55204 16.5 5.14722C16.5 6.7424 15.4967 7.66539 13.9016 7.66539H12.5227C12.2703 7.66539 12.0656 7.87006 12.0656 8.12254V8.90376ZM13.6909 4.33458H12.5227C12.2703 4.33458 12.0656 4.53925 12.0656 4.79172V5.51275C12.0656 5.76522 12.2703 5.96989 12.5227 5.96989H13.6909C14.353 5.96989 14.6239 5.83946 14.6239 5.14722C14.6239 4.465 14.353 4.33458 13.6909 4.33458Z" fill="#FDEB56"/>
</svg>
