<svg width="14" height="14" viewBox="0 0 14 14" fill="none" xmlns="http://www.w3.org/2000/svg">
<path d="M10.4356 6.35699C11.2493 6.24266 11.8758 5.54499 11.8776 4.69974C11.8776 3.86674 11.2703 3.17608 10.4741 3.04541" stroke="white" stroke-width="1.2" stroke-linecap="round" stroke-linejoin="round"/>
<path d="M11.5097 8.31299C12.2978 8.43082 12.8479 8.70674 12.8479 9.27549C12.8479 9.6669 12.5889 9.92124 12.17 10.0811" stroke="white" stroke-width="1.2" stroke-linecap="round" stroke-linejoin="round"/>
<path fill-rule="evenodd" clip-rule="evenodd" d="M6.93499 8.5542C5.06016 8.5542 3.45891 8.83828 3.45891 9.97287C3.45891 11.1069 5.05024 11.3991 6.93499 11.3991C8.80982 11.3991 10.4105 11.1179 10.4105 9.98278C10.4105 8.84762 8.81974 8.5542 6.93499 8.5542Z" stroke="white" stroke-width="1.2" stroke-linecap="round" stroke-linejoin="round"/>
<path fill-rule="evenodd" clip-rule="evenodd" d="M6.93481 6.93499C8.16506 6.93499 9.16256 5.93808 9.16256 4.70724C9.16256 3.47699 8.16506 2.47949 6.93481 2.47949C5.70456 2.47949 4.70706 3.47699 4.70706 4.70724C4.70239 5.93341 5.69231 6.93091 6.91847 6.93499H6.93481Z" stroke="white" stroke-width="1.2" stroke-linecap="round" stroke-linejoin="round"/>
<path d="M3.43403 6.35699C2.61969 6.24266 1.99378 5.54499 1.99203 4.69974C1.99203 3.86674 2.59928 3.17608 3.39553 3.04541" stroke="white" stroke-width="1.2" stroke-linecap="round" stroke-linejoin="round"/>
<path d="M2.35949 8.31299C1.57141 8.43082 1.02132 8.70674 1.02132 9.27549C1.02132 9.6669 1.28032 9.92124 1.69916 10.0811" stroke="white" stroke-width="1.2" stroke-linecap="round" stroke-linejoin="round"/>
</svg>
