<svg width="40" height="40" viewBox="0 0 40 40" fill="none" xmlns="http://www.w3.org/2000/svg">
<rect width="40" height="40" rx="20" fill="#FDEB56" fill-opacity="0.15"/>
<path d="M25.9546 28.3334L24.4938 18.3167C24.3757 17.507 24.3167 17.1022 24.4437 16.729C24.7088 15.95 25.5402 15.6532 25.9266 14.9846C25.9836 14.886 26.0121 14.7748 26.0688 14.5522L26.5409 12.7022C26.6626 12.2256 26.7234 11.9872 26.5956 11.827C26.468 11.6667 26.2172 11.6667 25.7156 11.6667H24.8291C24.2713 11.6667 24.2465 11.6832 24.0393 12.1906L23.6165 13.2262C23.4093 13.7337 23.3846 13.7501 22.8266 13.7501H22.3986C21.8253 13.7501 21.6796 13.6438 21.5645 13.0802L21.4127 12.3366C21.2976 11.773 21.1519 11.6667 20.5786 11.6667H19.4214C18.8481 11.6667 18.7023 11.773 18.5872 12.3366L18.4355 13.0802C18.3204 13.6438 18.1746 13.7501 17.6013 13.7501H17.1733C16.6154 13.7501 16.5907 13.7337 16.3835 13.2262L15.9606 12.1906C15.7534 11.6832 15.7287 11.6667 15.1708 11.6667H14.2843C13.7828 11.6667 13.532 11.6667 13.4043 11.827C13.2766 11.9872 13.3374 12.2256 13.459 12.7022L13.9311 14.5522C13.9879 14.7748 14.0163 14.886 14.0733 14.9846C14.4597 15.6532 15.2912 15.95 15.5562 16.729C15.6832 17.1022 15.6242 17.507 15.5061 18.3167L14.0454 28.3334" stroke="#FDEB56" stroke-width="1.4" stroke-linecap="round" stroke-linejoin="round"/>
<path d="M17.5 28.3333L18.0065 25.8009C18.1261 25.2028 18.1859 24.9037 18.3463 24.6826C18.7446 24.1335 19.3843 24.1666 20 24.1666C20.6157 24.1666 21.2554 24.1335 21.6537 24.6826C21.8141 24.9037 21.8739 25.2028 21.9935 25.8009L22.5 28.3333" stroke="#FDEB56" stroke-width="1.4" stroke-linecap="round" stroke-linejoin="round"/>
<path d="M12.5 28.3333H27.5" stroke="#FDEB56" stroke-width="1.4" stroke-linecap="round" stroke-linejoin="round"/>
<path d="M15.8333 16.6667H24.1666" stroke="#FDEB56" stroke-width="1.4" stroke-linecap="round" stroke-linejoin="round"/>
<path d="M22.5 19.1667H24.1667" stroke="#FDEB56" stroke-width="1.4" stroke-linecap="round" stroke-linejoin="round"/>
<path d="M15.8333 20.8333H17.5" stroke="#FDEB56" stroke-width="1.4" stroke-linecap="round" stroke-linejoin="round"/>
</svg>
