<svg width="40" height="40" viewBox="0 0 40 40" fill="none" xmlns="http://www.w3.org/2000/svg">
<rect width="40" height="40" rx="20" fill="#40F293" fill-opacity="0.15"/>
<path d="M28.3334 18.3334V17.6813C28.3334 16.065 28.3334 15.2568 27.8452 14.7547C27.357 14.2525 26.5714 14.2525 25 14.2525H23.2679C22.5034 14.2525 22.497 14.251 21.8096 13.907L19.0333 12.5177C17.8741 11.9376 17.2945 11.6476 16.677 11.6677C16.0595 11.6879 15.499 12.0151 14.3779 12.6697L13.3547 13.2671C12.5312 13.7478 12.1194 13.9882 11.8931 14.3881C11.6667 14.788 11.6667 15.275 11.6667 16.249V23.0965C11.6667 24.3762 11.6667 25.0162 11.9519 25.3723C12.1417 25.6092 12.4077 25.7686 12.7017 25.8214C13.1436 25.9007 13.6846 25.5849 14.7666 24.9532C15.5013 24.5243 16.2084 24.0787 17.0874 24.1996C17.8239 24.3007 18.5084 24.7655 19.1667 25.0949" stroke="#40F293" stroke-width="1.4" stroke-linecap="round" stroke-linejoin="round"/>
<path d="M16.6667 11.6667V24.1667" stroke="#40F293" stroke-width="1.4" stroke-linejoin="round"/>
<path d="M22.5 14.1667V17.9167" stroke="#40F293" stroke-width="1.4" stroke-linecap="round" stroke-linejoin="round"/>
<path d="M25.2569 28.0696C25.0762 28.2387 24.8347 28.3333 24.5834 28.3333C24.3321 28.3333 24.0906 28.2387 23.9099 28.0696C22.2552 26.5108 20.0379 24.7696 21.1192 22.2415C21.7039 20.8747 23.1074 20 24.5834 20C26.0594 20 27.4629 20.8747 28.0476 22.2415C29.1276 24.7663 26.9156 26.5162 25.2569 28.0696Z" stroke="#40F293" stroke-width="1.4"/>
<path d="M24.5833 23.75H24.5908" stroke="#40F293" stroke-width="1.4" stroke-linecap="round" stroke-linejoin="round"/>
</svg>
