<svg width="40" height="40" viewBox="0 0 40 40" fill="none" xmlns="http://www.w3.org/2000/svg">
<rect width="40" height="40" rx="20" fill="#457CF1" fill-opacity="0.15"/>
<path d="M16.6554 17.9094L14.731 16.261C13.4617 15.1691 13.4574 13.5846 13.322 12.5164C14.7106 12.5823 15.7862 12.708 16.7229 13.4992L17.7028 14.6125L18.7632 15.803M26.2144 25.3485L23.7438 22.8487M21.6846 25.3485C21.7034 25.1217 21.8519 24.5335 22.534 23.9033C23.1459 23.3379 24.473 21.9829 25.0694 21.3953C25.4072 21.0625 25.961 20.829 26.2144 20.8294M22.9736 20.6735L24.0874 21.9058M21.3969 22.0303L22.6421 23.125M27.0514 24.9837C27.7434 24.985 28.3343 25.4961 28.3329 26.1877C28.3316 26.8792 27.7434 27.4855 27.0514 27.4843C26.3594 27.4829 25.8257 26.8744 25.827 26.1829C25.8717 25.4947 26.3807 25.0762 27.0514 24.9837Z" stroke="#457CF1" stroke-width="1.5" stroke-linecap="round" stroke-linejoin="round"/>
<path d="M13.8299 25.3274L16.2949 22.9172M13.8013 20.8225C14.0283 20.8409 14.6613 20.9925 15.2283 21.7008C15.7489 22.3511 17.1531 23.6088 17.7422 24.2035C18.0758 24.5405 18.3092 25.0742 18.3092 25.3274M16.0537 21.8582L22.9196 13.8867C24.0368 12.6399 25.5982 12.6127 26.6696 12.4983C26.5765 13.8844 26.4296 14.9567 25.6196 15.877L17.1246 23.2718M14.1718 26.2489C14.1718 26.9404 13.6108 27.5011 12.9188 27.5011C12.2268 27.5011 11.6658 26.9404 11.6658 26.2489C11.6658 25.5573 12.2268 24.9968 12.9188 24.9968C13.6108 24.9968 14.1718 25.5573 14.1718 26.2489Z" stroke="#457CF1" stroke-width="1.5" stroke-linecap="round" stroke-linejoin="round"/>
</svg>
