<svg width="16" height="16" viewBox="0 0 16 16" fill="none" xmlns="http://www.w3.org/2000/svg">
<path d="M2 11.9883V8.47281C2 6.05058 2 4.83946 2.73223 4.08697C3.46447 3.33447 4.64298 3.33447 7 3.33447C9.357 3.33447 10.5355 3.33447 11.2678 4.08697C12 4.83946 12 6.05058 12 8.47281V11.9883C12 13.5256 12 14.2942 11.517 14.5693C10.5816 15.1021 8.827 13.3246 7.99373 12.7894C7.51047 12.479 7.26887 12.3238 7 12.3238C6.73113 12.3238 6.4895 12.479 6.00625 12.7894C5.173 13.3246 3.41842 15.1021 2.48303 14.5693C2 14.2942 2 13.5256 2 11.9883Z" stroke="#E68CFF" stroke-linecap="round" stroke-linejoin="round"/>
<path d="M6 1.33447H7.33333C10.476 1.33447 12.0474 1.33447 13.0237 2.31079C14 3.28709 14 4.85844 14 8.00114V12.0011" stroke="#E68CFF" stroke-linecap="round" stroke-linejoin="round"/>
</svg>
