<svg width="16" height="16" viewBox="0 0 16 16" fill="none" xmlns="http://www.w3.org/2000/svg">
<path d="M4.85595 6.47435L4.57365 5.92591C4.46114 5.70733 4.40488 5.59803 4.32061 5.51895C4.25133 5.45395 4.16883 5.40409 4.07853 5.37268C3.96871 5.33447 3.84407 5.33447 3.59482 5.33447C3.22842 5.33447 3.04522 5.33447 2.90223 5.40458C2.78527 5.46191 2.68767 5.55124 2.62114 5.66181C2.5398 5.79699 2.52675 5.97659 2.50065 6.33577L2.05081 12.5253C1.97787 13.5289 1.9414 14.0307 2.24319 14.3493C2.54498 14.6678 3.05685 14.6678 4.0806 14.6678H11.9194C12.9431 14.6678 13.455 14.6678 13.7568 14.3493C14.0586 14.0307 14.0221 13.5289 13.9492 12.5253L13.4993 6.33577C13.4733 5.97659 13.4602 5.79699 13.3789 5.66181C13.3123 5.55124 13.2147 5.46191 13.0978 5.40458C12.9548 5.33447 12.7716 5.33447 12.4052 5.33447C12.1559 5.33447 12.0313 5.33447 11.9215 5.37268C11.8312 5.40409 11.7487 5.45395 11.6794 5.51895C11.5951 5.59803 11.5389 5.70732 11.4263 5.92592L11.1441 6.47435C11.0639 6.6301 11.0238 6.70794 10.9698 6.76961C10.878 6.87427 10.7554 6.94841 10.6189 6.98161C10.5386 7.00114 10.4498 7.00114 10.2722 7.00114C10.0737 7.00114 9.97453 7.00114 9.8868 6.97761C9.73753 6.93754 9.60673 6.84854 9.51607 6.72541C9.46273 6.65302 9.42773 6.56175 9.3578 6.37921L9.27687 6.16781C9.1282 5.77983 9.05393 5.58583 8.89746 5.46951C8.8822 5.45815 8.86647 5.44742 8.85027 5.43737C8.68433 5.33447 8.47347 5.33447 8.0516 5.33447H7.9484C7.52653 5.33447 7.31567 5.33447 7.1498 5.43737C7.13353 5.44742 7.1178 5.45815 7.10253 5.46951C6.94607 5.58583 6.8718 5.77983 6.72313 6.16781L6.64218 6.37921C6.57225 6.56175 6.53729 6.65302 6.48395 6.72541C6.39324 6.84854 6.26243 6.93754 6.11322 6.97761C6.02547 7.00114 5.92624 7.00114 5.72778 7.00114C5.55019 7.00114 5.46139 7.00114 5.38108 6.98161C5.24459 6.94841 5.12197 6.87427 5.0302 6.76961C4.9762 6.70794 4.93612 6.6301 4.85595 6.47435Z" stroke="#8CF9FF" stroke-linecap="round" stroke-linejoin="round"/>
<path d="M8 3.33447C8.994 3.79017 10.6667 3.00114 10.6667 1.33447C9.57187 1.74973 9.007 1.74397 8 1.33447V3.33447ZM8 3.33447V5.33447" stroke="#8CF9FF" stroke-linecap="round" stroke-linejoin="round"/>
<path d="M6 14.6681L6.40518 12.6422C6.50088 12.1637 6.54873 11.9244 6.677 11.7476C6.99567 11.3082 7.50747 11.3348 8 11.3348C8.49253 11.3348 9.00433 11.3082 9.323 11.7476C9.45127 11.9244 9.49913 12.1637 9.5948 12.6422L10 14.6681" stroke="#8CF9FF" stroke-linecap="round" stroke-linejoin="round"/>
<path d="M7.3332 9.33447H8.66654" stroke="#8CF9FF" stroke-linecap="round" stroke-linejoin="round"/>
</svg>
