<svg width="10" height="10" viewBox="0 0 10 10" fill="none" xmlns="http://www.w3.org/2000/svg">
<path d="M4.61958 0.670821C4.73932 0.302296 5.26068 0.302296 5.38042 0.67082L6.25728 3.3695C6.31083 3.53431 6.46441 3.6459 6.6377 3.6459H9.47526C9.86275 3.6459 10.0239 4.14174 9.71038 4.3695L7.41474 6.03738C7.27455 6.13924 7.21588 6.31979 7.26943 6.4846L8.14629 9.18328C8.26603 9.5518 7.84424 9.85826 7.53075 9.6305L5.23511 7.96262C5.09492 7.86076 4.90508 7.86076 4.76489 7.96262L2.46925 9.6305C2.15576 9.85826 1.73397 9.55181 1.85371 9.18328L2.73057 6.4846C2.78412 6.31979 2.72545 6.13924 2.58526 6.03738L0.289621 4.3695C-0.0238649 4.14174 0.137245 3.6459 0.524734 3.6459H3.3623C3.53559 3.6459 3.68917 3.53431 3.74272 3.3695L4.61958 0.670821Z" fill="#1FD031"/>
</svg>
