<svg width="14" height="14" viewBox="0 0 14 14" fill="none" xmlns="http://www.w3.org/2000/svg">
<path d="M7 4.37498C7 5.50256 6.08592 6.41665 4.95833 6.41665C3.83075 6.41665 2.91667 5.50256 2.91667 4.37498C2.91667 3.2474 3.83075 2.33331 4.95833 2.33331C6.08592 2.33331 7 3.2474 7 4.37498Z" stroke="white" stroke-width="1.2"/>
<path d="M7.875 6.41665C9.00258 6.41665 9.91667 5.50256 9.91667 4.37498C9.91667 3.2474 9.00258 2.33331 7.875 2.33331" stroke="white" stroke-width="1.2" stroke-linecap="round"/>
<path d="M7.66669 11.6667H2.25C1.65169 11.6667 1.16667 11.219 1.16667 10.6667C1.16667 9.28599 2.37923 8.16669 3.875 8.16669H6.04164C6.65134 8.16669 7.21402 8.35265 7.66669 8.66649" stroke="white" stroke-width="1.2" stroke-linecap="round" stroke-linejoin="round"/>
<path d="M11.0833 8.16669V11.6667M12.8333 9.91669H9.33333" stroke="white" stroke-width="1.2" stroke-linecap="round"/>
</svg>
