<svg width="47" height="52" viewBox="0 0 47 52" fill="none" xmlns="http://www.w3.org/2000/svg">
<path d="M26.3873 25.8568C26.3873 25.8568 23.0847 21.1616 15.8828 21.4401C16.7184 22.0768 17.9518 23.0317 19.3843 24.2652C21.4931 26.0558 21.7717 26.4139 21.9308 26.8118C22.8858 29.1196 20.6178 32.2232 21.7319 32.1436C22.0502 32.1038 25.5119 31.1886 25.5119 31.1886L26.3873 25.8568Z" fill="#D8A27D"/>
<path d="M37.2499 48.0988L28.5757 51.9982C28.5757 51.9982 24.5172 42.4885 24.3978 41.6529C24.159 40.6183 23.7611 40.2602 23.0449 39.5042C22.3685 38.8676 22.0104 37.9524 21.3738 37.276L18.6283 33.8541C18.5222 33.748 18.4426 33.6153 18.3895 33.4562C18.3895 33.4562 16.8775 28.9997 15.0472 25.6176C14.888 25.3391 14.3708 24.3443 14.331 24.1454C14.2912 23.9464 14.132 23.9066 14.2116 23.7077C14.2912 23.469 14.4503 23.27 14.6095 23.1109C14.888 22.8721 15.2859 22.6732 15.644 22.5936C16.1215 22.514 16.3602 22.6732 16.6786 22.9517C16.7051 22.9782 16.7184 23.0047 16.7184 23.0313C16.7979 23.1109 16.8775 23.1904 16.9571 23.27C16.9836 23.3231 17.0234 23.3761 17.0765 23.4292C17.3948 23.8669 17.6335 24.3443 17.9518 24.782C19.5832 27.0102 19.4638 26.8909 20.1801 28.005C20.2994 28.1642 20.4586 28.3233 20.6575 28.4029L21.4931 28.761C21.5197 28.7875 21.5462 28.8008 21.5727 28.8008C21.6258 28.8273 21.6788 28.8406 21.7319 28.8406C21.7849 28.8406 21.838 28.8406 21.891 28.8406C21.9441 28.8406 21.9839 28.8406 22.0104 28.8406C22.3287 28.8406 22.6072 28.6814 22.8062 28.4427L23.4428 27.6867C23.4693 27.6601 23.4959 27.6336 23.5224 27.6071C23.7214 27.2888 23.7612 26.8511 23.602 26.493L22.4481 24.026C22.2889 23.6679 21.9706 23.4292 21.5727 23.3894C20.5912 23.2567 19.6098 23.1241 18.6283 22.9915C17.9916 22.9119 17.3948 22.8323 16.7979 22.6732C16.2011 22.514 15.1666 22.4742 14.888 21.8774C14.6095 21.2805 15.087 20.5643 15.644 20.4051C16.7582 20.0868 23.3632 20.4051 23.3632 20.4051C23.6418 20.4449 23.8805 20.5643 24.0795 20.7633L28.6951 25.538C28.8277 25.6972 28.9073 25.8563 28.9338 26.0155C28.9603 26.0686 28.9736 26.1216 28.9736 26.1747C28.9736 26.2012 28.9736 26.241 28.9736 26.294L29.2919 27.5275C29.345 27.6602 29.3848 27.7928 29.4113 27.9254C29.4378 28.0846 29.4776 28.2305 29.5307 28.3631C31.2814 35.0478 30.5254 36.3608 31.9578 39.1063C32.117 39.4247 37.2499 48.0988 37.2499 48.0988Z" fill="#EAB38B"/>
<path d="M30.605 34.7295C30.605 35.008 30.5652 35.2069 30.4856 35.2467L24.1192 37.5943L22.09 29.6364L21.891 28.8406C21.9441 28.8406 21.9839 28.8406 22.0104 28.8406C22.3287 28.8406 22.6072 28.6814 22.8062 28.4427L23.4428 27.6867C23.4693 27.6601 23.4959 27.6336 23.5224 27.6071C23.7213 27.2888 23.7611 26.8511 23.602 26.493L22.4481 24.026C22.2889 23.6679 21.9706 23.4292 21.5727 23.3894C20.5912 23.2567 19.6097 23.1241 18.6283 22.9915C17.9916 22.9119 17.3948 22.8323 16.7979 22.6732C16.2011 22.514 15.1665 22.4742 14.888 21.8774C14.6095 21.2805 15.087 20.5643 15.644 20.4051C16.7581 20.0868 23.3632 20.4051 23.3632 20.4051C23.6418 20.4449 23.8805 20.5643 24.0795 20.7633L28.6951 25.538C28.8277 25.6972 28.9073 25.8563 28.9338 26.0155C28.9603 26.0686 28.9736 26.1216 28.9736 26.1747C28.9736 26.2012 28.9736 26.241 28.9736 26.294L29.2919 27.5275L29.4113 27.9254L29.5306 28.3631L30.1673 30.8699C30.1673 31.1882 30.605 33.6551 30.605 34.7295Z" fill="#EAB38B"/>
<path d="M16.7585 37.5959L19.6631 31.9059C18.1511 31.8661 16.6391 31.6672 15.1669 31.3091L12.9784 35.6462C12.9784 35.6462 9.03925 35.7257 6.33354 37.755C9.79525 39.2272 13.7742 39.6251 17.4747 38.8691C17.0768 38.0733 16.7585 37.5959 16.7585 37.5959Z" fill="#F0C20C"/>
<path d="M17.4745 38.8688C13.774 39.6248 9.79504 39.2269 6.33333 37.7546C5.81607 38.1127 5.37838 38.5504 4.98048 39.0279L11.8243 42.5294L18.6682 46.0309C19.464 43.4048 18.3101 40.5001 17.4745 38.8688Z" fill="#FDD400"/>
<path d="M15.2066 15.51C15.1535 15.4834 15.1005 15.4569 15.0475 15.4304C13.1773 13.9184 10.8297 12.088 9.55647 9.50171C8.32299 6.99496 8.28319 3.37409 10.591 1.26523C12.1428 -0.127413 14.371 -0.40594 15.9626 0.588804C16.8778 1.14586 17.4746 2.22018 17.594 3.37409C17.6736 4.40862 17.3155 5.36357 16.639 6.00021C16.2809 6.31853 15.6841 6.27874 15.3658 5.92063C15.0474 5.56252 15.0475 5.00547 15.4453 4.64736C15.7239 4.40862 15.8432 3.97093 15.8034 3.53325C15.7637 2.9364 15.4453 2.37934 15.0076 2.10081C14.0925 1.54376 12.7396 1.74271 11.7847 2.57829C10.1533 4.0903 10.2329 6.79601 11.1878 8.70592C12.1826 10.775 13.9731 12.287 16.1616 14.0377C16.5595 14.3561 16.5993 14.9131 16.3207 15.2712C16.0422 15.6293 15.5647 15.7089 15.2066 15.51Z" fill="#FDD400"/>
<path d="M31.7598 24.0223C31.8128 24.0488 31.8659 24.062 31.9189 24.062C34.2267 24.6987 37.1314 25.5343 39.9565 25.0568C42.702 24.5793 45.6862 22.4705 46.0045 19.4066C46.2433 17.3376 45.1689 15.3481 43.4182 14.6717C42.4234 14.2738 41.2297 14.3533 40.235 14.9502C39.3596 15.4675 38.7628 16.3428 38.6832 17.258C38.6036 17.7355 38.9617 18.213 39.4392 18.2527C39.9565 18.2925 40.3942 17.9742 40.434 17.4569C40.4737 17.0988 40.7523 16.7407 41.1502 16.502C41.6674 16.1837 42.3041 16.1041 42.7816 16.303C43.7365 16.7009 44.3731 17.9344 44.2538 19.2077C44.015 21.3961 41.747 22.9081 39.6382 23.2662C37.4099 23.6641 35.1419 23.1071 32.4362 22.3511C31.9587 22.2317 31.4415 22.5102 31.3221 22.9479C31.2027 23.3856 31.4017 23.8233 31.7598 24.0223Z" fill="#F0C20C"/>
<path d="M18.9869 14.7568C23.8014 14.3589 26.9846 10.937 28.8945 6.75908L18.5492 1.46704C18.4961 1.57315 18.4431 1.66599 18.39 1.74557C16.2414 5.9235 15.1273 10.181 14.9681 14.0008C16.1618 14.6375 17.5942 14.916 18.9869 14.7568Z" fill="#FDD400"/>
<path d="M35.8975 10.3384C32.4756 18.0576 23.9606 23.7873 15.9628 21.1214C15.9628 21.1214 15.9628 21.1347 15.9628 21.1612C17.1565 24.1852 17.1167 27.5673 15.6047 30.472L15.167 31.3076C16.6393 31.6657 18.1513 31.8646 19.6633 31.9044C21.0161 29.2783 23.4433 27.4082 26.3082 26.7715C31.6798 25.5779 37.5289 20.4848 41.2293 13.0839L35.8975 10.3384Z" fill="#E5B11F"/>
<g style="mix-blend-mode:multiply">
<path d="M25.7909 26.3746C24.6768 26.6133 23.6024 26.7327 22.5679 26.7327C19.1858 26.7327 18.1114 23.2312 16.0026 21.1223C15.9761 21.1223 15.9628 21.1223 15.9628 21.1223C15.9628 21.1223 15.9628 21.1356 15.9628 21.1621C17.1565 24.1861 17.1167 27.5683 15.6047 30.4729L15.167 31.3085C16.6392 31.6666 18.1512 31.8656 19.6632 31.9053C21.0161 29.2792 23.4433 27.4091 26.3081 26.7725C27.6212 26.4939 28.9343 25.9767 30.2473 25.2604C28.8414 25.791 27.3559 26.1623 25.7909 26.3746Z" fill="#F2F1F0"/>
</g>
<path d="M21.8519 29.0808C21.6928 29.1869 21.5469 29.3196 21.4143 29.4787C20.698 30.1949 18.9871 33.4975 18.5096 34.4127C16.9976 34.3729 16.6395 31.6672 15.207 31.3091L15.6049 30.4735C16.4007 28.9217 16.7986 27.2505 16.7986 25.5395C16.7986 24.8764 16.7456 24.2265 16.6395 23.5898C17.1965 24.0673 17.5149 24.704 17.9923 25.261C18.629 26.0568 19.2656 26.8128 19.8625 27.6484C20.0481 27.8871 20.2206 28.1126 20.3797 28.3248C20.5389 28.5238 20.6981 28.6431 20.897 28.7227L21.7326 29.041C21.7856 29.041 21.8254 29.0543 21.8519 29.0808Z" fill="#EFBC1D"/>
<g style="mix-blend-mode:multiply">
<path d="M21.7322 29.041L20.8966 28.7227C20.6976 28.6431 20.5385 28.5238 20.3793 28.3248C20.2202 28.1126 20.0477 27.8871 19.862 27.6484C19.2652 26.8128 18.6286 26.0568 17.9919 25.261C17.5144 24.704 17.1961 24.0673 16.6391 23.5898C16.7452 24.2265 16.7982 24.8764 16.7982 25.5395C16.7982 26.972 16.7982 27.6882 16.2014 29.041C16.7187 30.8316 17.5543 33.02 18.5092 34.4127C19.1458 33.219 20.7772 30.1154 21.4139 29.4787C21.5465 29.3196 21.6924 29.1869 21.8515 29.0808C21.825 29.0543 21.7852 29.041 21.7322 29.041Z" fill="#DDDDDD"/>
</g>
<path d="M35.8975 10.3379L28.8945 6.75684C26.9846 10.9348 23.8014 14.3567 18.9869 14.7546C17.5942 14.9137 16.1618 14.6352 14.9681 13.9986C14.8487 16.6645 15.1671 19.0917 15.9628 21.1209C23.9606 23.7869 32.4756 18.0571 35.8975 10.3379Z" fill="#F0C20C"/>
<path d="M19.9019 46.6676L3.74723 38.3913C2.71269 37.874 1.43943 38.2719 0.922162 39.3065L0.245731 40.6593C-0.311325 41.6938 0.126367 42.9671 1.12111 43.4844L17.3155 51.7607C18.3501 52.2779 19.5836 51.88 20.1406 50.8455L20.817 49.4926C21.3343 48.4581 20.9364 47.2246 19.9019 46.6676Z" fill="#1F3547"/>
<path d="M4.90126 41.0164L3.82693 43.1252L16.0424 49.3722L17.1167 47.2633L4.90126 41.0164Z" fill="#F0C20C"/>
<g style="mix-blend-mode:overlay" opacity="0.44">
<path d="M18.6679 4.69067L24.5966 7.7147C24.5966 7.7147 17.7925 14.8371 20.6574 21.7605C16.9171 18.4181 14.8879 11.4947 18.6679 4.69067Z" fill="#E6E7E8"/>
</g>
<path d="M21.4931 28.7636L20.6575 28.4055C20.4586 28.3259 20.2994 28.1667 20.1801 28.0076C20.0209 27.7423 19.8618 27.4903 19.7026 27.2516C19.1455 26.416 18.5487 25.5804 17.9518 24.7846C17.5142 24.148 17.1958 23.4715 16.6786 22.9543C16.3602 22.6757 16.1215 22.5166 15.644 22.5962C15.2461 22.6757 14.888 22.8747 14.6095 23.1134C14.4503 23.2726 14.2912 23.4715 14.2116 23.7103C14.132 23.9092 14.2912 23.949 14.331 24.148C14.3708 24.3469 14.888 25.3417 15.0472 25.6202C16.8775 29.0023 18.3895 33.4588 18.3895 33.4588C18.4426 33.6179 18.5222 33.7506 18.6283 33.8567L21.5329 36.8409C21.891 37.2388 22.5277 38.2335 22.9653 37.9948L24.1193 37.5969L21.891 28.8432C21.7584 28.8432 21.6258 28.8166 21.4931 28.7636Z" fill="#EAB38B"/>
<path d="M16.599 24.2283C16.4796 24.3875 16.2807 24.5864 16.0022 24.7854C15.6441 24.9843 15.3258 25.0639 15.1268 25.1037C14.835 24.6527 14.5299 24.1885 14.2116 23.711C14.2912 23.4723 14.4504 23.2734 14.6095 23.1142C14.8881 22.8357 15.286 22.6765 15.7237 22.6367L16.599 24.2283Z" fill="#F2C4A5"/>
<g style="mix-blend-mode:multiply" opacity="0.74">
<path d="M30.8035 34.8512C30.7239 34.8247 30.6576 34.7849 30.6045 34.7319C27.6203 33.1801 24.1586 30.7131 22.0896 29.6388C21.7182 29.4266 21.3999 29.2807 21.1346 29.2011C21.055 29.1746 20.9887 29.1481 20.9356 29.1215C18.9462 28.3655 16.7975 23.6703 16.7179 23.0337C16.7975 23.1133 16.8771 23.1928 16.9567 23.2724C16.9832 23.3255 17.023 23.3785 17.076 23.4316C17.3943 23.8693 17.6331 24.3468 17.9514 24.7844C18.5483 25.5802 19.1451 26.4158 19.7022 27.2514C19.8613 27.4901 20.0205 27.7421 20.1796 28.0074C20.299 28.1666 20.4582 28.3257 20.6571 28.4053L21.4927 28.7634C21.5192 28.7899 21.5457 28.8032 21.5723 28.8032C21.6253 28.8297 21.6784 28.843 21.7314 28.843C21.7845 28.843 21.8375 28.843 21.8906 28.843C21.9437 28.843 21.9834 28.843 22.01 28.843C22.0365 28.843 22.0763 28.843 22.1293 28.843C22.1559 28.6838 22.1691 28.5247 22.1691 28.3655C22.5935 28.0737 23.0445 27.8217 23.522 27.6095C24.3576 27.2116 25.2727 26.9331 26.1879 26.7739C27.0898 26.6413 28.0049 26.3893 28.9334 26.0179C28.9599 26.071 28.9732 26.124 28.9732 26.1771C28.9732 26.2036 28.9732 26.2434 28.9732 26.2965L29.2915 27.5299L29.4109 27.9278L29.5302 28.3655L30.1669 30.8723C30.525 32.1853 30.6443 33.5382 30.8035 34.8512Z" fill="#EFEFEF"/>
</g>
</svg>
