<svg width="16" height="16" viewBox="0 0 16 16" fill="none" xmlns="http://www.w3.org/2000/svg">
<path d="M1.6668 7.99886C1.6668 5.0133 1.6668 3.52052 2.59429 2.59302C3.52179 1.66553 5.01457 1.66553 8.00013 1.66553C10.9857 1.66553 12.4785 1.66553 13.406 2.59302C14.3335 3.52052 14.3335 5.0133 14.3335 7.99886C14.3335 10.9844 14.3335 12.4772 13.406 13.4047C12.4785 14.3322 10.9857 14.3322 8.00013 14.3322C5.01457 14.3322 3.52179 14.3322 2.59429 13.4047C1.6668 12.4772 1.6668 10.9844 1.6668 7.99886Z" stroke="#FFF78C" stroke-linejoin="round"/>
<path d="M5.6668 6.66553C5.11451 6.66553 4.6668 6.21781 4.6668 5.66553C4.6668 5.11324 5.11451 4.66553 5.6668 4.66553C6.21908 4.66553 6.6668 5.11324 6.6668 5.66553C6.6668 6.21781 6.21908 6.66553 5.6668 6.66553Z" stroke="#FFF78C"/>
<path d="M10.3332 11.3345C10.8855 11.3345 11.3332 10.8867 11.3332 10.3345C11.3332 9.78221 10.8855 9.33447 10.3332 9.33447C9.78094 9.33447 9.3332 9.78221 9.3332 10.3345C9.3332 10.8867 9.78094 11.3345 10.3332 11.3345Z" stroke="#FFF78C"/>
<path d="M6.6668 5.66553H11.3335" stroke="#FFF78C" stroke-linecap="round"/>
<path d="M9.33346 10.3345H4.6668" stroke="#FFF78C" stroke-linecap="round"/>
</svg>
