<svg width="12" height="12" viewBox="0 0 12 12" fill="none" xmlns="http://www.w3.org/2000/svg">
<path d="M8.2574 8.25745C8.5448 7.97005 8.49705 6.7491 8.49705 6.7491M8.2574 8.25745C7.97 8.54485 6.74905 8.497 6.74905 8.497M8.2574 8.25745L6.5 6.5M3.74253 3.74256C4.02993 3.45516 5.2509 3.50298 5.2509 3.50298M3.74253 3.74256C3.45512 4.02997 3.50299 5.2509 3.50299 5.2509M3.74253 3.74256L5.5 5.5" stroke="white" stroke-opacity="0.5" stroke-linecap="round" stroke-linejoin="round"/>
<path d="M1.25 6C1.25 3.76083 1.25 2.64124 1.94562 1.94562C2.64124 1.25 3.76083 1.25 6 1.25C8.23915 1.25 9.35875 1.25 10.0544 1.94562C10.75 2.64124 10.75 3.76083 10.75 6C10.75 8.23915 10.75 9.35875 10.0544 10.0544C9.35875 10.75 8.23915 10.75 6 10.75C3.76083 10.75 2.64124 10.75 1.94562 10.0544C1.25 9.35875 1.25 8.23915 1.25 6Z" stroke="white" stroke-opacity="0.5"/>
</svg>
