<svg width="14" height="15" viewBox="0 0 14 15" fill="none" xmlns="http://www.w3.org/2000/svg">
<path d="M9.04167 6.91667C9.04167 5.78908 8.12758 4.875 7 4.875C5.87242 4.875 4.95833 5.78908 4.95833 6.91667C4.95833 8.04425 5.87242 8.95833 7 8.95833C8.12758 8.95833 9.04167 8.04425 9.04167 6.91667Z" stroke="white" stroke-width="1.2" stroke-linecap="round" stroke-linejoin="round"/>
<path d="M9.03145 7.12078C9.21929 7.17771 9.4185 7.20833 9.62488 7.20833C10.7525 7.20833 11.6665 6.29425 11.6665 5.16667C11.6665 4.03908 10.7525 3.125 9.62488 3.125C8.56619 3.125 7.69568 3.93082 7.5933 4.96258" stroke="white" stroke-width="1.2" stroke-linecap="round" stroke-linejoin="round"/>
<path d="M6.40657 4.96258C6.3042 3.93082 5.4337 3.125 4.375 3.125C3.24742 3.125 2.33333 4.03908 2.33333 5.16667C2.33333 6.29425 3.24742 7.20833 4.375 7.20833C4.58139 7.20833 4.78062 7.17771 4.96841 7.12078" stroke="white" stroke-width="1.2" stroke-linecap="round" stroke-linejoin="round"/>
<path d="M12.8333 10.1237C12.8333 8.51288 11.3969 7.20703 9.625 7.20703" stroke="white" stroke-width="1.2" stroke-linecap="round" stroke-linejoin="round"/>
<path d="M10.2082 11.8737C10.2082 10.2629 8.77177 8.95703 6.99984 8.95703C5.22792 8.95703 3.7915 10.2629 3.7915 11.8737" stroke="white" stroke-width="1.2" stroke-linecap="round" stroke-linejoin="round"/>
<path d="M4.37484 7.20703C2.60292 7.20703 1.1665 8.51288 1.1665 10.1237" stroke="white" stroke-width="1.2" stroke-linecap="round" stroke-linejoin="round"/>
</svg>
