<svg width="849" height="483" viewBox="0 0 849 483" fill="none" xmlns="http://www.w3.org/2000/svg">
<path d="M1.98797 482.341C1.48148 482.341 0.974989 482.138 0.569799 481.733C-0.189933 480.973 -0.189933 479.707 0.569799 478.947L111.643 367.875V259.892C111.643 259.385 111.845 258.879 112.2 258.473L190.503 180.221C190.908 179.816 191.364 179.613 191.921 179.613H354.605L426.425 107.793C426.83 107.439 427.336 107.236 427.843 107.236H738.978L845.645 0.569799C846.404 -0.189933 847.671 -0.189933 848.43 0.569799C849.19 1.32953 849.19 2.59575 848.43 3.35548L741.207 110.579C740.802 110.984 740.346 111.187 739.789 111.187H428.653L356.833 183.007C356.479 183.361 355.972 183.564 355.415 183.564H192.731L115.593 260.702V368.736C115.593 369.242 115.391 369.749 115.036 370.103L3.35548 481.733C3.00094 482.138 2.49445 482.341 1.98797 482.341Z" fill="white"/>
</svg>
