<svg width="857" height="491" viewBox="0 0 857 491" fill="none" xmlns="http://www.w3.org/2000/svg">
<path d="M5.95174 490.297C4.43215 490.297 2.91255 489.689 1.74753 488.575C-0.582511 486.245 -0.582511 482.496 1.74753 480.166L111.665 370.249V263.877C111.665 262.307 112.273 260.788 113.387 259.673L191.697 181.414C192.811 180.3 194.331 179.641 195.901 179.641H356.978L427.639 108.98C428.753 107.866 430.273 107.258 431.843 107.258H741.384L846.895 1.74753C849.174 -0.582511 852.922 -0.582511 855.252 1.74753C857.582 4.07758 857.582 7.82591 855.252 10.1053L748.02 117.338C746.905 118.452 745.386 119.111 743.816 119.111H434.274L363.613 189.772C362.499 190.886 360.979 191.494 359.409 191.494H198.332L123.518 266.309V372.731C123.518 374.301 122.91 375.77 121.795 376.884L10.1053 488.575C8.99093 489.689 7.47134 490.297 5.95174 490.297Z" fill="#FF80FA"/>
</svg>
