<svg width="1503" height="812" viewBox="0 0 1503 812" fill="none" xmlns="http://www.w3.org/2000/svg">
<path d="M28.3929 0V18.3126M28.3929 18.3126L28.3929 51.9137M28.3929 18.3126H0M28.3929 18.3126H61.994M28.3929 51.9137V85.5148M28.3929 51.9137H0M28.3929 51.9137H61.994M28.3929 85.5148L28.3929 119.116M28.3929 85.5148H0M28.3929 85.5148H61.994M28.3929 119.116V152.717M28.3929 119.116H0M28.3929 119.116H61.994M28.3929 152.717L28.3929 186.318M28.3929 152.717H0M28.3929 152.717H61.994M28.3929 186.318V219.919M28.3929 186.318H0M28.3929 186.318H61.994M28.3929 219.919L28.3929 253.52M28.3929 219.919H0M28.3929 219.919H61.994M28.3929 253.52V287.121M28.3929 253.52H0M28.3929 253.52H61.994M28.3929 287.121L28.3929 320.722M28.3929 287.121H0M28.3929 287.121H61.994M28.3929 320.722V354.324M28.3929 320.722H0M28.3929 320.722H61.994M28.3929 354.324L28.3929 387.925M28.3929 354.324H0M28.3929 354.324H61.994M28.3929 387.925V406.573M28.3929 387.925H0M28.3929 387.925H61.994M61.994 0V18.3126M61.994 18.3126V51.9137M61.994 18.3126H95.5951M61.994 51.9137L61.994 85.5148M61.994 51.9137H95.5951M61.994 85.5148V119.116M61.994 85.5148H95.5951M61.994 119.116V152.717M61.994 119.116H95.5951M61.994 152.717V186.318M61.994 152.717H95.5951M61.994 186.318L61.994 219.919M61.994 186.318H95.5951M61.994 219.919V253.52M61.994 219.919H95.5951M61.994 253.52V287.121M61.994 253.52H95.5951M61.994 287.121V320.722M61.994 287.121H95.5951M61.994 320.722L61.994 354.324M61.994 320.722H95.5951M61.994 354.324V387.925M61.994 354.324H95.5951M61.994 387.925V406.573M61.994 387.925H95.5951M95.5951 0V18.3126M95.5951 18.3126V51.9137M95.5951 18.3126H129.196M95.5951 51.9137V85.5148M95.5951 51.9137H129.196M95.5951 85.5148V119.116M95.5951 85.5148H129.196M95.5951 119.116V152.717M95.5951 119.116H129.196M95.5951 152.717V186.318M95.5951 152.717H129.196M95.5951 186.318V219.919M95.5951 186.318H129.196M95.5951 219.919V253.52M95.5951 219.919H129.196M95.5951 253.52V287.121M95.5951 253.52H129.196M95.5951 287.121L95.5951 320.722M95.5951 287.121H129.196M95.5951 320.722V354.324M95.5951 320.722H129.196M95.5951 354.324V387.925M95.5951 354.324H129.196M95.5951 387.925V406.573M95.5951 387.925H129.196M129.196 0V18.3126M129.196 18.3126V51.9137M129.196 18.3126H162.797M129.196 51.9137V85.5148M129.196 51.9137H162.797M129.196 85.5148L129.196 119.116M129.196 85.5148H162.797M129.196 119.116V152.717M129.196 119.116H162.797M129.196 152.717V186.318M129.196 152.717H162.797M129.196 186.318V219.919M129.196 186.318H162.797M129.196 219.919V253.52M129.196 219.919H162.797M129.196 253.52V287.121M129.196 253.52H162.797M129.196 287.121L129.196 320.722M129.196 287.121H162.797M129.196 320.722V354.324M129.196 320.722H162.797M129.196 354.324V387.925M129.196 354.324H162.797M129.196 387.925V406.573M129.196 387.925H162.797M162.797 0V18.3126M162.797 18.3126V51.9137M162.797 18.3126H196.398M162.797 51.9137V85.5148M162.797 51.9137H196.398M162.797 85.5148L162.797 119.116M162.797 85.5148H196.398M162.797 119.116V152.717M162.797 119.116H196.398M162.797 152.717V186.318M162.797 152.717H196.398M162.797 186.318V219.919M162.797 186.318H196.398M162.797 219.919V253.52M162.797 219.919H196.398M162.797 253.52V287.121M162.797 253.52H196.398M162.797 287.121V320.722M162.797 287.121H196.398M162.797 320.722V354.324M162.797 320.722H196.398M162.797 354.324V387.925M162.797 354.324H196.398M162.797 387.925V406.573M162.797 387.925H196.398M196.398 0V18.3126M196.398 18.3126V51.9137M196.398 18.3126H229.999M196.398 51.9137V85.5148M196.398 51.9137H229.999M196.398 85.5148V119.116M196.398 85.5148H229.999M196.398 119.116V152.717M196.398 119.116H229.999M196.398 152.717V186.318M196.398 152.717H229.999M196.398 186.318V219.919M196.398 186.318H229.999M196.398 219.919V253.52M196.398 219.919H229.999M196.398 253.52V287.121M196.398 253.52H229.999M196.398 287.121L196.398 320.722M196.398 287.121H229.999M196.398 320.722V354.324M196.398 320.722H229.999M196.398 354.324V387.925M196.398 354.324H229.999M196.398 387.925V406.573M196.398 387.925H229.999M229.999 0V18.3126M229.999 18.3126V51.9137M229.999 18.3126H263.601M229.999 51.9137V85.5148M229.999 51.9137H263.601M229.999 85.5148V119.116M229.999 85.5148H263.601M229.999 119.116V152.717M229.999 119.116H263.601M229.999 152.717V186.318M229.999 152.717H263.601M229.999 186.318L229.999 219.919M229.999 186.318H263.601M229.999 219.919V253.52M229.999 219.919H263.601M229.999 253.52V287.121M229.999 253.52H263.601M229.999 287.121V320.722M229.999 287.121H263.601M229.999 320.722V354.324M229.999 320.722H263.601M229.999 354.324V387.925M229.999 354.324H263.601M229.999 387.925V406.573M229.999 387.925H263.601M263.601 0V18.3126M263.601 18.3126V51.9137M263.601 18.3126H297.202M263.601 51.9137V85.5148M263.601 51.9137H297.202M263.601 85.5148V119.116M263.601 85.5148H297.202M263.601 119.116V152.717M263.601 119.116H297.202M263.601 152.717V186.318M263.601 152.717H297.202M263.601 186.318L263.601 219.919M263.601 186.318H297.202M263.601 219.919V253.52M263.601 219.919H297.202M263.601 253.52V287.121M263.601 253.52H297.202M263.601 287.121V320.722M263.601 287.121H297.202M263.601 320.722V354.324M263.601 320.722H297.202M263.601 354.324V387.925M263.601 354.324H297.202M263.601 387.925V406.573M263.601 387.925H297.202M297.202 0V18.3126M297.202 18.3126V51.9137M297.202 18.3126H330.803M297.202 51.9137V85.5148M297.202 51.9137H330.803M297.202 85.5148V119.116M297.202 85.5148H330.803M297.202 119.116V152.717M297.202 119.116H330.803M297.202 152.717V186.318M297.202 152.717H330.803M297.202 186.318L297.202 219.919M297.202 186.318H330.803M297.202 219.919V253.52M297.202 219.919H330.803M297.202 253.52V287.121M297.202 253.52H330.803M297.202 287.121V320.722M297.202 287.121H330.803M297.202 320.722V354.324M297.202 320.722H330.803M297.202 354.324V387.925M297.202 354.324H330.803M297.202 387.925V406.573M297.202 387.925H330.803M330.803 0V18.3126M330.803 18.3126V51.9137M330.803 18.3126H364.404M330.803 51.9137V85.5148M330.803 51.9137H364.404M330.803 85.5148V119.116M330.803 85.5148H364.404M330.803 119.116V152.717M330.803 119.116H364.404M330.803 152.717V186.318M330.803 152.717H364.404M330.803 186.318V219.919M330.803 186.318H364.404M330.803 219.919V253.52M330.803 219.919H364.404M330.803 253.52V287.121M330.803 253.52H364.404M330.803 287.121V320.722M330.803 287.121H364.404M330.803 320.722V354.324M330.803 320.722H364.404M330.803 354.324V387.925M330.803 354.324H364.404M330.803 387.925V406.573M330.803 387.925H364.404M364.404 0V18.3126M364.404 18.3126V51.9137M364.404 18.3126L398.005 18.3126M364.404 51.9137V85.5148M364.404 51.9137H398.005M364.404 85.5148V119.116M364.404 85.5148H398.005M364.404 119.116V152.717M364.404 119.116H398.005M364.404 152.717V186.318M364.404 152.717H398.005M364.404 186.318V219.919M364.404 186.318H398.005M364.404 219.919V253.52M364.404 219.919H398.005M364.404 253.52V287.121M364.404 253.52H398.005M364.404 287.121V320.722M364.404 287.121H398.005M364.404 320.722V354.324M364.404 320.722H398.005M364.404 354.324V387.925M364.404 354.324H398.005M364.404 387.925V406.573M364.404 387.925H398.005M398.005 0V18.3126M398.005 18.3126V51.9137M398.005 18.3126H431.606M398.005 51.9137V85.5148M398.005 51.9137H431.606M398.005 85.5148V119.116M398.005 85.5148H431.606M398.005 119.116V152.717M398.005 119.116H431.606M398.005 152.717V186.318M398.005 152.717H431.606M398.005 186.318V219.919M398.005 186.318H431.606M398.005 219.919V253.52M398.005 219.919H431.606M398.005 253.52V287.121M398.005 253.52H431.606M398.005 287.121V320.722M398.005 287.121H431.606M398.005 320.722V354.324M398.005 320.722H431.606M398.005 354.324V387.925M398.005 354.324H431.606M398.005 387.925V406.573M398.005 387.925H431.606M431.606 0V18.3126M431.606 18.3126V51.9137M431.606 18.3126H465.207M431.606 51.9137V85.5148M431.606 51.9137H465.207M431.606 85.5148V119.116M431.606 85.5148H465.207M431.606 119.116V152.717M431.606 119.116H465.207M431.606 152.717V186.318M431.606 152.717H465.207M431.606 186.318V219.919M431.606 186.318H465.207M431.606 219.919V253.52M431.606 219.919H465.207M431.606 253.52V287.121M431.606 253.52H465.207M431.606 287.121V320.722M431.606 287.121H465.207M431.606 320.722V354.324M431.606 320.722H465.207M431.606 354.324V387.925M431.606 354.324H465.207M431.606 387.925V406.573M431.606 387.925H465.207M465.207 0V18.3126M465.207 18.3126V51.9137M465.207 18.3126H498.808M465.207 51.9137V85.5148M465.207 51.9137H498.808M465.207 85.5148V119.116M465.207 85.5148H498.808M465.207 119.116V152.717M465.207 119.116H498.808M465.207 152.717V186.318M465.207 152.717H498.808M465.207 186.318V219.919M465.207 186.318H498.808M465.207 219.919V253.52M465.207 219.919H498.808M465.207 253.52V287.121M465.207 253.52H498.808M465.207 287.121V320.722M465.207 287.121H498.808M465.207 320.722V354.324M465.207 320.722H498.808M465.207 354.324V387.925M465.207 354.324H498.808M465.207 387.925V406.573M465.207 387.925H498.808M498.808 0V18.3126M498.808 18.3126V51.9137M498.808 18.3126H532.409M498.808 51.9137V85.5148M498.808 51.9137H532.409M498.808 85.5148V119.116M498.808 85.5148H532.409M498.808 119.116V152.717M498.808 119.116H532.409M498.808 152.717V186.318M498.808 152.717H532.409M498.808 186.318V219.919M498.808 186.318H532.409M498.808 219.919V253.52M498.808 219.919H532.409M498.808 253.52V287.121M498.808 253.52H532.409M498.808 287.121V320.722M498.808 287.121H532.409M498.808 320.722V354.324M498.808 320.722H532.409M498.808 354.324V387.925M498.808 354.324H532.409M498.808 387.925V406.573M498.808 387.925H532.409M532.409 0V18.3126M532.409 18.3126V51.9137M532.409 18.3126H566.01M532.409 51.9137V85.5148M532.409 51.9137H566.01M532.409 85.5148V119.116M532.409 85.5148H566.01M532.409 119.116V152.717M532.409 119.116H566.01M532.409 152.717V186.318M532.409 152.717H566.01M532.409 186.318V219.919M532.409 186.318H566.01M532.409 219.919V253.52M532.409 219.919H566.01M532.409 253.52V287.121M532.409 253.52H566.01M532.409 287.121V320.722M532.409 287.121H566.01M532.409 320.722V354.324M532.409 320.722H566.01M532.409 354.324V387.925M532.409 354.324H566.01M532.409 387.925V406.573M532.409 387.925H566.01M566.01 0V18.3126M566.01 18.3126V51.9137M566.01 18.3126H599.612M566.01 51.9137V85.5148M566.01 51.9137H599.612M566.01 85.5148V119.116M566.01 85.5148H599.612M566.01 119.116V152.717M566.01 119.116H599.612M566.01 152.717V186.318M566.01 152.717H599.612M566.01 186.318V219.919M566.01 186.318H599.612M566.01 219.919V253.52M566.01 219.919H599.612M566.01 253.52V287.121M566.01 253.52H599.612M566.01 287.121V320.722M566.01 287.121H599.612M566.01 320.722V354.324M566.01 320.722H599.612M566.01 354.324V387.925M566.01 354.324H599.612M566.01 387.925V406.573M566.01 387.925H599.612M599.612 0V18.3126M599.612 18.3126V51.9137M599.612 18.3126H633.213M599.612 51.9137V85.5148M599.612 51.9137H633.213M599.612 85.5148V119.116M599.612 85.5148H633.213M599.612 119.116V152.717M599.612 119.116H633.213M599.612 152.717V186.318M599.612 152.717H633.213M599.612 186.318V219.919M599.612 186.318H633.213M599.612 219.919V253.52M599.612 219.919H633.213M599.612 253.52V287.121M599.612 253.52H633.213M599.612 287.121V320.722M599.612 287.121H633.213M599.612 320.722V354.324M599.612 320.722H633.213M599.612 354.324V387.925M599.612 354.324H633.213M599.612 387.925V406.573M599.612 387.925H633.213M633.213 0V18.3126M633.213 18.3126V51.9137M633.213 18.3126H666.814M633.213 51.9137V85.5148M633.213 51.9137H666.814M633.213 85.5148V119.116M633.213 85.5148H666.814M633.213 119.116V152.717M633.213 119.116H666.814M633.213 152.717V186.318M633.213 152.717H666.814M633.213 186.318V219.919M633.213 186.318H666.814M633.213 219.919V253.52M633.213 219.919H666.814M633.213 253.52V287.121M633.213 253.52H666.814M633.213 287.121V320.722M633.213 287.121H666.814M633.213 320.722V354.324M633.213 320.722H666.814M633.213 354.324V387.925M633.213 354.324H666.814M633.213 387.925V406.573M633.213 387.925H666.814M666.814 0V18.3126M666.814 18.3126V51.9137M666.814 18.3126H700.415M666.814 51.9137V85.5148M666.814 51.9137H700.415M666.814 85.5148V119.116M666.814 85.5148H700.415M666.814 119.116V152.717M666.814 119.116H700.415M666.814 152.717V186.318M666.814 152.717H700.415M666.814 186.318V219.919M666.814 186.318H700.415M666.814 219.919V253.52M666.814 219.919H700.415M666.814 253.52V287.121M666.814 253.52H700.415M666.814 287.121V320.722M666.814 287.121H700.415M666.814 320.722V354.324M666.814 320.722H700.415M666.814 354.324V387.925M666.814 354.324H700.415M666.814 387.925V406.573M666.814 387.925H700.415M700.415 0V18.3126M700.415 18.3126V51.9137M700.415 18.3126H734.016M700.415 51.9137V85.5148M700.415 51.9137H734.016M700.415 85.5148V119.116M700.415 85.5148H734.016M700.415 119.116V152.717M700.415 119.116H734.016M700.415 152.717V186.318M700.415 152.717H734.016M700.415 186.318V219.919M700.415 186.318H734.016M700.415 219.919V253.52M700.415 219.919H734.016M700.415 253.52V287.121M700.415 253.52H734.016M700.415 287.121V320.722M700.415 287.121H734.016M700.415 320.722V354.324M700.415 320.722H734.016M700.415 354.324V387.925M700.415 354.324H734.016M700.415 387.925V406.573M700.415 387.925H734.016M734.016 0V18.3126M734.016 18.3126V51.9137M734.016 18.3126H762.409M734.016 51.9137V85.5148M734.016 51.9137H762.409M734.016 85.5148V119.116M734.016 85.5148H762.409M734.016 119.116V152.717M734.016 119.116H762.409M734.016 152.717V186.318M734.016 152.717H762.409M734.016 186.318V219.919M734.016 186.318H762.409M734.016 219.919V253.52M734.016 219.919H762.409M734.016 253.52V287.121M734.016 253.52H762.409M734.016 287.121V320.722M734.016 287.121H762.409M734.016 320.722V354.324M734.016 320.722H762.409M734.016 354.324V387.925M734.016 354.324H762.409M734.016 387.925V406.573M734.016 387.925H762.409M768.168 0V18.3126M768.168 18.3126V51.9137M768.168 18.3126H739.775M768.168 18.3126H801.769M768.168 51.9137V85.5148M768.168 51.9137H739.775M768.168 51.9137H801.769M768.168 85.5148V119.116M768.168 85.5148H739.775M768.168 85.5148H801.769M768.168 119.116V152.717M768.168 119.116H739.775M768.168 119.116H801.769M768.168 152.717V186.318M768.168 152.717H739.775M768.168 152.717H801.769M768.168 186.318V219.919M768.168 186.318H739.775M768.168 186.318H801.769M768.168 219.919V253.52M768.168 219.919H739.775M768.168 219.919H801.769M768.168 253.52V287.121M768.168 253.52H739.775M768.168 253.52H801.769M768.168 287.121V320.722M768.168 287.121H739.775M768.168 287.121H801.769M768.168 320.722V354.324M768.168 320.722H739.775M768.168 320.722H801.769M768.168 354.324V387.925M768.168 354.324H739.775M768.168 354.324H801.769M768.168 387.925V406.573M768.168 387.925H739.775M768.168 387.925H801.769M801.769 0V18.3126M801.769 18.3126V51.9137M801.769 18.3126H835.37M801.769 51.9137V85.5148M801.769 51.9137H835.37M801.769 85.5148V119.116M801.769 85.5148H835.37M801.769 119.116V152.717M801.769 119.116H835.37M801.769 152.717V186.318M801.769 152.717H835.37M801.769 186.318V219.919M801.769 186.318H835.37M801.769 219.919V253.52M801.769 219.919H835.37M801.769 253.52V287.121M801.769 253.52H835.37M801.769 287.121V320.722M801.769 287.121H835.37M801.769 320.722V354.324M801.769 320.722H835.37M801.769 354.324V387.925M801.769 354.324H835.37M801.769 387.925V406.573M801.769 387.925H835.37M835.37 0V18.3126M835.37 18.3126V51.9137M835.37 18.3126H868.971M835.37 51.9137V85.5148M835.37 51.9137H868.971M835.37 85.5148V119.116M835.37 85.5148H868.971M835.37 119.116V152.717M835.37 119.116H868.971M835.37 152.717V186.318M835.37 152.717H868.971M835.37 186.318V219.919M835.37 186.318H868.971M835.37 219.919V253.52M835.37 219.919H868.971M835.37 253.52V287.121M835.37 253.52H868.971M835.37 287.121V320.722M835.37 287.121H868.971M835.37 320.722V354.324M835.37 320.722H868.971M835.37 354.324V387.925M835.37 354.324H868.971M835.37 387.925V406.573M835.37 387.925H868.971M868.971 0V18.3126M868.971 18.3126V51.9137M868.971 18.3126H902.572M868.971 51.9137V85.5148M868.971 51.9137H902.572M868.971 85.5148L868.971 119.116M868.971 85.5148H902.572M868.971 119.116V152.717M868.971 119.116H902.572M868.971 152.717V186.318M868.971 152.717H902.572M868.971 186.318V219.919M868.971 186.318H902.572M868.971 219.919V253.52M868.971 219.919H902.572M868.971 253.52V287.121M868.971 253.52H902.572M868.971 287.121V320.722M868.971 287.121H902.572M868.971 320.722V354.324M868.971 320.722H902.572M868.971 354.324V387.925M868.971 354.324H902.572M868.971 387.925V406.573M868.971 387.925H902.572M902.572 0V18.3126M902.572 18.3126V51.9137M902.572 18.3126H936.173M902.572 51.9137V85.5148M902.572 51.9137H936.173M902.572 85.5148V119.116M902.572 85.5148H936.173M902.572 119.116V152.717M902.572 119.116H936.173M902.572 152.717V186.318M902.572 152.717H936.173M902.572 186.318V219.919M902.572 186.318H936.173M902.572 219.919V253.52M902.572 219.919H936.173M902.572 253.52V287.121M902.572 253.52H936.173M902.572 287.121V320.722M902.572 287.121H936.173M902.572 320.722V354.324M902.572 320.722H936.173M902.572 354.324V387.925M902.572 354.324H936.173M902.572 387.925V406.573M902.572 387.925H936.173M936.173 0V18.3126M936.173 18.3126V51.9137M936.173 18.3126H969.774M936.173 51.9137V85.5148M936.173 51.9137H969.774M936.173 85.5148V119.116M936.173 85.5148H969.774M936.173 119.116V152.717M936.173 119.116H969.774M936.173 152.717V186.318M936.173 152.717H969.774M936.173 186.318V219.919M936.173 186.318H969.774M936.173 219.919V253.52M936.173 219.919H969.774M936.173 253.52V287.121M936.173 253.52H969.774M936.173 287.121V320.722M936.173 287.121H969.774M936.173 320.722V354.324M936.173 320.722H969.774M936.173 354.324V387.925M936.173 354.324H969.774M936.173 387.925V406.573M936.173 387.925H969.774M969.774 0V18.3126M969.774 18.3126V51.9137M969.774 18.3126H1003.38M969.774 51.9137V85.5148M969.774 51.9137H1003.38M969.774 85.5148V119.116M969.774 85.5148H1003.38M969.774 119.116V152.717M969.774 119.116H1003.38M969.774 152.717V186.318M969.774 152.717H1003.38M969.774 186.318V219.919M969.774 186.318H1003.38M969.774 219.919V253.52M969.774 219.919H1003.38M969.774 253.52V287.121M969.774 253.52H1003.38M969.774 287.121V320.722M969.774 287.121H1003.38M969.774 320.722V354.324M969.774 320.722H1003.38M969.774 354.324V387.925M969.774 354.324H1003.38M969.774 387.925V406.573M969.774 387.925H1003.38M1003.38 0V18.3126M1003.38 18.3126V51.9137M1003.38 18.3126H1036.98M1003.38 51.9137V85.5148M1003.38 51.9137H1036.98M1003.38 85.5148V119.116M1003.38 85.5148H1036.98M1003.38 119.116V152.717M1003.38 119.116H1036.98M1003.38 152.717V186.318M1003.38 152.717H1036.98M1003.38 186.318L1003.38 219.919M1003.38 186.318H1036.98M1003.38 219.919V253.52M1003.38 219.919H1036.98M1003.38 253.52V287.121M1003.38 253.52H1036.98M1003.38 287.121V320.722M1003.38 287.121H1036.98M1003.38 320.722V354.324M1003.38 320.722H1036.98M1003.38 354.324V387.925M1003.38 354.324H1036.98M1003.38 387.925V406.573M1003.38 387.925H1036.98M1036.98 0V18.3126M1036.98 18.3126V51.9137M1036.98 18.3126H1070.58M1036.98 51.9137V85.5148M1036.98 51.9137H1070.58M1036.98 85.5148V119.116M1036.98 85.5148H1070.58M1036.98 119.116V152.717M1036.98 119.116H1070.58M1036.98 152.717V186.318M1036.98 152.717H1070.58M1036.98 186.318V219.919M1036.98 186.318H1070.58M1036.98 219.919V253.52M1036.98 219.919H1070.58M1036.98 253.52V287.121M1036.98 253.52H1070.58M1036.98 287.121V320.722M1036.98 287.121H1070.58M1036.98 320.722V354.324M1036.98 320.722H1070.58M1036.98 354.324V387.925M1036.98 354.324H1070.58M1036.98 387.925V406.573M1036.98 387.925H1070.58M1070.58 0V18.3126M1070.58 18.3126V51.9137M1070.58 18.3126H1104.18M1070.58 51.9137V85.5148M1070.58 51.9137H1104.18M1070.58 85.5148V119.116M1070.58 85.5148H1104.18M1070.58 119.116V152.717M1070.58 119.116H1104.18M1070.58 152.717V186.318M1070.58 152.717H1104.18M1070.58 186.318V219.919M1070.58 186.318H1104.18M1070.58 219.919V253.52M1070.58 219.919H1104.18M1070.58 253.52V287.121M1070.58 253.52H1104.18M1070.58 287.121V320.722M1070.58 287.121H1104.18M1070.58 320.722V354.324M1070.58 320.722H1104.18M1070.58 354.324V387.925M1070.58 354.324H1104.18M1070.58 387.925V406.573M1070.58 387.925H1104.18M1104.18 0V18.3126M1104.18 18.3126V51.9137M1104.18 18.3126L1137.78 18.3126M1104.18 51.9137V85.5148M1104.18 51.9137H1137.78M1104.18 85.5148V119.116M1104.18 85.5148H1137.78M1104.18 119.116V152.717M1104.18 119.116H1137.78M1104.18 152.717V186.318M1104.18 152.717H1137.78M1104.18 186.318V219.919M1104.18 186.318H1137.78M1104.18 219.919V253.52M1104.18 219.919H1137.78M1104.18 253.52V287.121M1104.18 253.52H1137.78M1104.18 287.121V320.722M1104.18 287.121H1137.78M1104.18 320.722V354.324M1104.18 320.722H1137.78M1104.18 354.324V387.925M1104.18 354.324H1137.78M1104.18 387.925V406.573M1104.18 387.925H1137.78M1137.78 0V18.3126M1137.78 18.3126V51.9137M1137.78 18.3126H1171.38M1137.78 51.9137V85.5148M1137.78 51.9137H1171.38M1137.78 85.5148V119.116M1137.78 85.5148H1171.38M1137.78 119.116V152.717M1137.78 119.116H1171.38M1137.78 152.717V186.318M1137.78 152.717H1171.38M1137.78 186.318V219.919M1137.78 186.318H1171.38M1137.78 219.919V253.52M1137.78 219.919H1171.38M1137.78 253.52V287.121M1137.78 253.52H1171.38M1137.78 287.121V320.722M1137.78 287.121H1171.38M1137.78 320.722V354.324M1137.78 320.722H1171.38M1137.78 354.324V387.925M1137.78 354.324H1171.38M1137.78 387.925V406.573M1137.78 387.925H1171.38M1171.38 0V18.3126M1171.38 18.3126V51.9137M1171.38 18.3126H1204.98M1171.38 51.9137V85.5148M1171.38 51.9137H1204.98M1171.38 85.5148V119.116M1171.38 85.5148H1204.98M1171.38 119.116V152.717M1171.38 119.116H1204.98M1171.38 152.717V186.318M1171.38 152.717H1204.98M1171.38 186.318V219.919M1171.38 186.318H1204.98M1171.38 219.919V253.52M1171.38 219.919H1204.98M1171.38 253.52V287.121M1171.38 253.52H1204.98M1171.38 287.121V320.722M1171.38 287.121H1204.98M1171.38 320.722V354.324M1171.38 320.722H1204.98M1171.38 354.324V387.925M1171.38 354.324H1204.98M1171.38 387.925V406.573M1171.38 387.925H1204.98M1204.98 0V18.3126M1204.98 18.3126V51.9137M1204.98 18.3126H1238.58M1204.98 51.9137V85.5148M1204.98 51.9137H1238.58M1204.98 85.5148V119.116M1204.98 85.5148H1238.58M1204.98 119.116V152.717M1204.98 119.116H1238.58M1204.98 152.717V186.318M1204.98 152.717H1238.58M1204.98 186.318V219.919M1204.98 186.318H1238.58M1204.98 219.919V253.52M1204.98 219.919H1238.58M1204.98 253.52V287.121M1204.98 253.52H1238.58M1204.98 287.121V320.722M1204.98 287.121H1238.58M1204.98 320.722V354.324M1204.98 320.722H1238.58M1204.98 354.324V387.925M1204.98 354.324H1238.58M1204.98 387.925V406.573M1204.98 387.925H1238.58M1238.58 0V18.3126M1238.58 18.3126V51.9137M1238.58 18.3126H1272.18M1238.58 51.9137V85.5148M1238.58 51.9137H1272.18M1238.58 85.5148V119.116M1238.58 85.5148H1272.18M1238.58 119.116V152.717M1238.58 119.116H1272.18M1238.58 152.717V186.318M1238.58 152.717H1272.18M1238.58 186.318V219.919M1238.58 186.318H1272.18M1238.58 219.919V253.52M1238.58 219.919H1272.18M1238.58 253.52V287.121M1238.58 253.52H1272.18M1238.58 287.121V320.722M1238.58 287.121H1272.18M1238.58 320.722V354.324M1238.58 320.722H1272.18M1238.58 354.324V387.925M1238.58 354.324H1272.18M1238.58 387.925V406.573M1238.58 387.925H1272.18M1272.18 0V18.3126M1272.18 18.3126V51.9137M1272.18 18.3126H1305.79M1272.18 51.9137V85.5148M1272.18 51.9137H1305.79M1272.18 85.5148V119.116M1272.18 85.5148H1305.79M1272.18 119.116V152.717M1272.18 119.116H1305.79M1272.18 152.717V186.318M1272.18 152.717H1305.79M1272.18 186.318V219.919M1272.18 186.318H1305.79M1272.18 219.919V253.52M1272.18 219.919H1305.79M1272.18 253.52V287.121M1272.18 253.52H1305.79M1272.18 287.121V320.722M1272.18 287.121H1305.79M1272.18 320.722V354.324M1272.18 320.722H1305.79M1272.18 354.324V387.925M1272.18 354.324H1305.79M1272.18 387.925V406.573M1272.18 387.925H1305.79M1305.79 0V18.3126M1305.79 18.3126V51.9137M1305.79 18.3126H1339.39M1305.79 51.9137V85.5148M1305.79 51.9137H1339.39M1305.79 85.5148V119.116M1305.79 85.5148H1339.39M1305.79 119.116V152.717M1305.79 119.116H1339.39M1305.79 152.717V186.318M1305.79 152.717H1339.39M1305.79 186.318V219.919M1305.79 186.318H1339.39M1305.79 219.919V253.52M1305.79 219.919H1339.39M1305.79 253.52V287.121M1305.79 253.52H1339.39M1305.79 287.121V320.722M1305.79 287.121H1339.39M1305.79 320.722V354.324M1305.79 320.722H1339.39M1305.79 354.324V387.925M1305.79 354.324H1339.39M1305.79 387.925V406.573M1305.79 387.925H1339.39M1339.39 0V18.3126M1339.39 18.3126V51.9137M1339.39 18.3126H1372.99M1339.39 51.9137V85.5148M1339.39 51.9137H1372.99M1339.39 85.5148V119.116M1339.39 85.5148H1372.99M1339.39 119.116V152.717M1339.39 119.116H1372.99M1339.39 152.717V186.318M1339.39 152.717H1372.99M1339.39 186.318V219.919M1339.39 186.318H1372.99M1339.39 219.919V253.52M1339.39 219.919H1372.99M1339.39 253.52V287.121M1339.39 253.52H1372.99M1339.39 287.121V320.722M1339.39 287.121H1372.99M1339.39 320.722V354.324M1339.39 320.722H1372.99M1339.39 354.324V387.925M1339.39 354.324H1372.99M1339.39 387.925V406.573M1339.39 387.925H1372.99M1372.99 0V18.3126M1372.99 18.3126V51.9137M1372.99 18.3126H1406.59M1372.99 51.9137V85.5148M1372.99 51.9137H1406.59M1372.99 85.5148V119.116M1372.99 85.5148H1406.59M1372.99 119.116V152.717M1372.99 119.116H1406.59M1372.99 152.717V186.318M1372.99 152.717H1406.59M1372.99 186.318V219.919M1372.99 186.318H1406.59M1372.99 219.919V253.52M1372.99 219.919H1406.59M1372.99 253.52V287.121M1372.99 253.52H1406.59M1372.99 287.121V320.722M1372.99 287.121H1406.59M1372.99 320.722V354.324M1372.99 320.722H1406.59M1372.99 354.324V387.925M1372.99 354.324H1406.59M1372.99 387.925V406.573M1372.99 387.925H1406.59M1406.59 0V18.3126M1406.59 18.3126V51.9137M1406.59 18.3126H1440.19M1406.59 51.9137V85.5148M1406.59 51.9137H1440.19M1406.59 85.5148V119.116M1406.59 85.5148H1440.19M1406.59 119.116V152.717M1406.59 119.116H1440.19M1406.59 152.717V186.318M1406.59 152.717H1440.19M1406.59 186.318V219.919M1406.59 186.318H1440.19M1406.59 219.919V253.52M1406.59 219.919H1440.19M1406.59 253.52V287.121M1406.59 253.52H1440.19M1406.59 287.121V320.722M1406.59 287.121H1440.19M1406.59 320.722V354.324M1406.59 320.722H1440.19M1406.59 354.324V387.925M1406.59 354.324H1440.19M1406.59 387.925V406.573M1406.59 387.925H1440.19M1440.19 0V18.3126M1440.19 18.3126V51.9137M1440.19 18.3126H1473.79M1440.19 51.9137V85.5148M1440.19 51.9137H1473.79M1440.19 85.5148V119.116M1440.19 85.5148H1473.79M1440.19 119.116V152.717M1440.19 119.116H1473.79M1440.19 152.717V186.318M1440.19 152.717H1473.79M1440.19 186.318V219.919M1440.19 186.318H1473.79M1440.19 219.919V253.52M1440.19 219.919H1473.79M1440.19 253.52V287.121M1440.19 253.52H1473.79M1440.19 287.121V320.722M1440.19 287.121H1473.79M1440.19 320.722V354.324M1440.19 320.722H1473.79M1440.19 354.324V387.925M1440.19 354.324H1473.79M1440.19 387.925V406.573M1440.19 387.925H1473.79M1473.79 0V18.3126M1473.79 18.3126V51.9137M1473.79 18.3126H1502.18M1473.79 51.9137V85.5148M1473.79 51.9137H1502.18M1473.79 85.5148V119.116M1473.79 85.5148H1502.18M1473.79 119.116V152.717M1473.79 119.116H1502.18M1473.79 152.717V186.318M1473.79 152.717H1502.18M1473.79 186.318V219.919M1473.79 186.318H1502.18M1473.79 219.919V253.52M1473.79 219.919H1502.18M1473.79 253.52V287.121M1473.79 253.52H1502.18M1473.79 287.121V320.722M1473.79 287.121H1502.18M1473.79 320.722V354.324M1473.79 320.722H1502.18M1473.79 354.324V387.925M1473.79 354.324H1502.18M1473.79 387.925V406.573M1473.79 387.925H1502.18M28.3929 405.427V423.739M28.3929 423.739L28.3929 457.34M28.3929 423.739H0M28.3929 423.739H61.994M28.3929 457.34V490.942M28.3929 457.34H0M28.3929 457.34H61.994M28.3929 490.942L28.3929 524.543M28.3929 490.942H0M28.3929 490.942H61.994M28.3929 524.543V558.144M28.3929 524.543H0M28.3929 524.543H61.994M28.3929 558.144L28.3929 591.745M28.3929 558.144H0M28.3929 558.144H61.994M28.3929 591.745V625.346M28.3929 591.745H0M28.3929 591.745H61.994M28.3929 625.346L28.3929 658.947M28.3929 625.346H0M28.3929 625.346H61.994M28.3929 658.947V692.548M28.3929 658.947H0M28.3929 658.947H61.994M28.3929 692.548L28.3929 726.149M28.3929 692.548H0M28.3929 692.548H61.994M28.3929 726.149V759.75M28.3929 726.149H0M28.3929 726.149H61.994M28.3929 759.75L28.3929 793.351M28.3929 759.75H0M28.3929 759.75H61.994M28.3929 793.351V812M28.3929 793.351H0M28.3929 793.351H61.994M61.994 405.427V423.739M61.994 423.739V457.34M61.994 423.739H95.5951M61.994 457.34L61.994 490.942M61.994 457.34H95.5951M61.994 490.942V524.543M61.994 490.942H95.5951M61.994 524.543V558.144M61.994 524.543H95.5951M61.994 558.144V591.745M61.994 558.144H95.5951M61.994 591.745L61.994 625.346M61.994 591.745H95.5951M61.994 625.346V658.947M61.994 625.346H95.5951M61.994 658.947V692.548M61.994 658.947H95.5951M61.994 692.548V726.149M61.994 692.548H95.5951M61.994 726.149L61.994 759.75M61.994 726.149H95.5951M61.994 759.75V793.351M61.994 759.75H95.5951M61.994 793.351V812M61.994 793.351H95.5951M95.5951 405.427V423.739M95.5951 423.739V457.34M95.5951 423.739H129.196M95.5951 457.34V490.942M95.5951 457.34H129.196M95.5951 490.942V524.543M95.5951 490.942H129.196M95.5951 524.543V558.144M95.5951 524.543H129.196M95.5951 558.144V591.745M95.5951 558.144H129.196M95.5951 591.745V625.346M95.5951 591.745H129.196M95.5951 625.346V658.947M95.5951 625.346H129.196M95.5951 658.947V692.548M95.5951 658.947H129.196M95.5951 692.548L95.5951 726.149M95.5951 692.548H129.196M95.5951 726.149V759.75M95.5951 726.149H129.196M95.5951 759.75V793.351M95.5951 759.75H129.196M95.5951 793.351V812M95.5951 793.351H129.196M129.196 405.427V423.739M129.196 423.739V457.34M129.196 423.739H162.797M129.196 457.34V490.942M129.196 457.34H162.797M129.196 490.942L129.196 524.543M129.196 490.942H162.797M129.196 524.543V558.144M129.196 524.543H162.797M129.196 558.144V591.745M129.196 558.144H162.797M129.196 591.745V625.346M129.196 591.745H162.797M129.196 625.346V658.947M129.196 625.346H162.797M129.196 658.947V692.548M129.196 658.947H162.797M129.196 692.548L129.196 726.149M129.196 692.548H162.797M129.196 726.149V759.75M129.196 726.149H162.797M129.196 759.75V793.351M129.196 759.75H162.797M129.196 793.351V812M129.196 793.351H162.797M162.797 405.427V423.739M162.797 423.739V457.34M162.797 423.739H196.398M162.797 457.34V490.942M162.797 457.34H196.398M162.797 490.942L162.797 524.543M162.797 490.942H196.398M162.797 524.543V558.144M162.797 524.543H196.398M162.797 558.144V591.745M162.797 558.144H196.398M162.797 591.745V625.346M162.797 591.745H196.398M162.797 625.346V658.947M162.797 625.346H196.398M162.797 658.947V692.548M162.797 658.947H196.398M162.797 692.548V726.149M162.797 692.548H196.398M162.797 726.149V759.75M162.797 726.149H196.398M162.797 759.75V793.351M162.797 759.75H196.398M162.797 793.351V812M162.797 793.351H196.398M196.398 405.427V423.739M196.398 423.739V457.34M196.398 423.739H229.999M196.398 457.34V490.942M196.398 457.34H229.999M196.398 490.942V524.543M196.398 490.942H229.999M196.398 524.543V558.144M196.398 524.543H229.999M196.398 558.144V591.745M196.398 558.144H229.999M196.398 591.745V625.346M196.398 591.745H229.999M196.398 625.346V658.947M196.398 625.346H229.999M196.398 658.947V692.548M196.398 658.947H229.999M196.398 692.548L196.398 726.149M196.398 692.548H229.999M196.398 726.149V759.75M196.398 726.149H229.999M196.398 759.75V793.351M196.398 759.75H229.999M196.398 793.351V812M196.398 793.351H229.999M229.999 405.427V423.739M229.999 423.739V457.34M229.999 423.739H263.601M229.999 457.34V490.942M229.999 457.34H263.601M229.999 490.942V524.543M229.999 490.942H263.601M229.999 524.543V558.144M229.999 524.543H263.601M229.999 558.144V591.745M229.999 558.144H263.601M229.999 591.745L229.999 625.346M229.999 591.745H263.601M229.999 625.346V658.947M229.999 625.346H263.601M229.999 658.947V692.548M229.999 658.947H263.601M229.999 692.548V726.149M229.999 692.548H263.601M229.999 726.149V759.75M229.999 726.149H263.601M229.999 759.75V793.351M229.999 759.75H263.601M229.999 793.351V812M229.999 793.351H263.601M263.601 405.427V423.739M263.601 423.739V457.34M263.601 423.739H297.202M263.601 457.34V490.942M263.601 457.34H297.202M263.601 490.942V524.543M263.601 490.942H297.202M263.601 524.543V558.144M263.601 524.543H297.202M263.601 558.144V591.745M263.601 558.144H297.202M263.601 591.745L263.601 625.346M263.601 591.745H297.202M263.601 625.346V658.947M263.601 625.346H297.202M263.601 658.947V692.548M263.601 658.947H297.202M263.601 692.548V726.149M263.601 692.548H297.202M263.601 726.149V759.75M263.601 726.149H297.202M263.601 759.75V793.351M263.601 759.75H297.202M263.601 793.351V812M263.601 793.351H297.202M297.202 405.427V423.739M297.202 423.739V457.34M297.202 423.739H330.803M297.202 457.34V490.942M297.202 457.34H330.803M297.202 490.942V524.543M297.202 490.942H330.803M297.202 524.543V558.144M297.202 524.543H330.803M297.202 558.144V591.745M297.202 558.144H330.803M297.202 591.745L297.202 625.346M297.202 591.745H330.803M297.202 625.346V658.947M297.202 625.346H330.803M297.202 658.947V692.548M297.202 658.947H330.803M297.202 692.548V726.149M297.202 692.548H330.803M297.202 726.149V759.75M297.202 726.149H330.803M297.202 759.75V793.351M297.202 759.75H330.803M297.202 793.351V812M297.202 793.351H330.803M330.803 405.427V423.739M330.803 423.739V457.34M330.803 423.739H364.404M330.803 457.34V490.942M330.803 457.34H364.404M330.803 490.942V524.543M330.803 490.942H364.404M330.803 524.543V558.144M330.803 524.543H364.404M330.803 558.144V591.745M330.803 558.144H364.404M330.803 591.745V625.346M330.803 591.745H364.404M330.803 625.346V658.947M330.803 625.346H364.404M330.803 658.947V692.548M330.803 658.947H364.404M330.803 692.548V726.149M330.803 692.548H364.404M330.803 726.149V759.75M330.803 726.149H364.404M330.803 759.75V793.351M330.803 759.75H364.404M330.803 793.351V812M330.803 793.351H364.404M364.404 405.427V423.739M364.404 423.739V457.34M364.404 423.739H398.005M364.404 457.34V490.942M364.404 457.34H398.005M364.404 490.942V524.543M364.404 490.942H398.005M364.404 524.543V558.144M364.404 524.543H398.005M364.404 558.144V591.745M364.404 558.144H398.005M364.404 591.745V625.346M364.404 591.745H398.005M364.404 625.346V658.947M364.404 625.346H398.005M364.404 658.947V692.548M364.404 658.947H398.005M364.404 692.548V726.149M364.404 692.548H398.005M364.404 726.149V759.75M364.404 726.149H398.005M364.404 759.75V793.351M364.404 759.75H398.005M364.404 793.351V812M364.404 793.351H398.005M398.005 405.427V423.739M398.005 423.739V457.34M398.005 423.739H431.606M398.005 457.34V490.942M398.005 457.34H431.606M398.005 490.942V524.543M398.005 490.942H431.606M398.005 524.543V558.144M398.005 524.543H431.606M398.005 558.144V591.745M398.005 558.144H431.606M398.005 591.745V625.346M398.005 591.745H431.606M398.005 625.346V658.947M398.005 625.346H431.606M398.005 658.947V692.548M398.005 658.947H431.606M398.005 692.548V726.149M398.005 692.548H431.606M398.005 726.149V759.75M398.005 726.149H431.606M398.005 759.75V793.351M398.005 759.75H431.606M398.005 793.351V812M398.005 793.351H431.606M431.606 405.427V423.739M431.606 423.739V457.34M431.606 423.739H465.207M431.606 457.34V490.942M431.606 457.34H465.207M431.606 490.942V524.543M431.606 490.942H465.207M431.606 524.543V558.144M431.606 524.543H465.207M431.606 558.144V591.745M431.606 558.144H465.207M431.606 591.745V625.346M431.606 591.745H465.207M431.606 625.346V658.947M431.606 625.346H465.207M431.606 658.947V692.548M431.606 658.947H465.207M431.606 692.548V726.149M431.606 692.548H465.207M431.606 726.149V759.75M431.606 726.149H465.207M431.606 759.75V793.351M431.606 759.75H465.207M431.606 793.351V812M431.606 793.351H465.207M465.207 405.427V423.739M465.207 423.739V457.34M465.207 423.739H498.808M465.207 457.34V490.942M465.207 457.34H498.808M465.207 490.942V524.543M465.207 490.942H498.808M465.207 524.543V558.144M465.207 524.543H498.808M465.207 558.144V591.745M465.207 558.144H498.808M465.207 591.745V625.346M465.207 591.745H498.808M465.207 625.346V658.947M465.207 625.346H498.808M465.207 658.947V692.548M465.207 658.947H498.808M465.207 692.548V726.149M465.207 692.548H498.808M465.207 726.149V759.75M465.207 726.149H498.808M465.207 759.75V793.351M465.207 759.75H498.808M465.207 793.351V812M465.207 793.351H498.808M498.808 405.427V423.739M498.808 423.739V457.34M498.808 423.739H532.409M498.808 457.34V490.942M498.808 457.34H532.409M498.808 490.942V524.543M498.808 490.942H532.409M498.808 524.543V558.144M498.808 524.543H532.409M498.808 558.144V591.745M498.808 558.144H532.409M498.808 591.745V625.346M498.808 591.745H532.409M498.808 625.346V658.947M498.808 625.346H532.409M498.808 658.947V692.548M498.808 658.947H532.409M498.808 692.548V726.149M498.808 692.548H532.409M498.808 726.149V759.75M498.808 726.149H532.409M498.808 759.75V793.351M498.808 759.75H532.409M498.808 793.351V812M498.808 793.351H532.409M532.409 405.427V423.739M532.409 423.739V457.34M532.409 423.739H566.01M532.409 457.34V490.942M532.409 457.34H566.01M532.409 490.942V524.543M532.409 490.942H566.01M532.409 524.543V558.144M532.409 524.543H566.01M532.409 558.144V591.745M532.409 558.144H566.01M532.409 591.745V625.346M532.409 591.745H566.01M532.409 625.346V658.947M532.409 625.346H566.01M532.409 658.947V692.548M532.409 658.947H566.01M532.409 692.548V726.149M532.409 692.548H566.01M532.409 726.149V759.75M532.409 726.149H566.01M532.409 759.75V793.351M532.409 759.75H566.01M532.409 793.351V812M532.409 793.351H566.01M566.01 405.427V423.739M566.01 423.739V457.34M566.01 423.739H599.612M566.01 457.34V490.942M566.01 457.34H599.612M566.01 490.942V524.543M566.01 490.942H599.612M566.01 524.543V558.144M566.01 524.543H599.612M566.01 558.144V591.745M566.01 558.144H599.612M566.01 591.745V625.346M566.01 591.745H599.612M566.01 625.346V658.947M566.01 625.346H599.612M566.01 658.947V692.548M566.01 658.947H599.612M566.01 692.548V726.149M566.01 692.548H599.612M566.01 726.149V759.75M566.01 726.149H599.612M566.01 759.75V793.351M566.01 759.75H599.612M566.01 793.351V812M566.01 793.351H599.612M599.612 405.427V423.739M599.612 423.739V457.34M599.612 423.739H633.213M599.612 457.34V490.942M599.612 457.34H633.213M599.612 490.942V524.543M599.612 490.942H633.213M599.612 524.543V558.144M599.612 524.543H633.213M599.612 558.144V591.745M599.612 558.144H633.213M599.612 591.745V625.346M599.612 591.745H633.213M599.612 625.346V658.947M599.612 625.346H633.213M599.612 658.947V692.548M599.612 658.947H633.213M599.612 692.548V726.149M599.612 692.548H633.213M599.612 726.149V759.75M599.612 726.149H633.213M599.612 759.75V793.351M599.612 759.75H633.213M599.612 793.351V812M599.612 793.351H633.213M633.213 405.427V423.739M633.213 423.739V457.34M633.213 423.739H666.814M633.213 457.34V490.942M633.213 457.34H666.814M633.213 490.942V524.543M633.213 490.942H666.814M633.213 524.543V558.144M633.213 524.543H666.814M633.213 558.144V591.745M633.213 558.144H666.814M633.213 591.745V625.346M633.213 591.745H666.814M633.213 625.346V658.947M633.213 625.346H666.814M633.213 658.947V692.548M633.213 658.947H666.814M633.213 692.548V726.149M633.213 692.548H666.814M633.213 726.149V759.75M633.213 726.149H666.814M633.213 759.75V793.351M633.213 759.75H666.814M633.213 793.351V812M633.213 793.351H666.814M666.814 405.427V423.739M666.814 423.739V457.34M666.814 423.739H700.415M666.814 457.34V490.942M666.814 457.34H700.415M666.814 490.942V524.543M666.814 490.942H700.415M666.814 524.543V558.144M666.814 524.543H700.415M666.814 558.144V591.745M666.814 558.144H700.415M666.814 591.745V625.346M666.814 591.745H700.415M666.814 625.346V658.947M666.814 625.346H700.415M666.814 658.947V692.548M666.814 658.947H700.415M666.814 692.548V726.149M666.814 692.548H700.415M666.814 726.149V759.75M666.814 726.149H700.415M666.814 759.75V793.351M666.814 759.75H700.415M666.814 793.351V812M666.814 793.351H700.415M700.415 405.427V423.739M700.415 423.739V457.34M700.415 423.739H734.016M700.415 457.34V490.942M700.415 457.34H734.016M700.415 490.942V524.543M700.415 490.942H734.016M700.415 524.543V558.144M700.415 524.543H734.016M700.415 558.144V591.745M700.415 558.144H734.016M700.415 591.745V625.346M700.415 591.745H734.016M700.415 625.346V658.947M700.415 625.346H734.016M700.415 658.947V692.548M700.415 658.947H734.016M700.415 692.548V726.149M700.415 692.548H734.016M700.415 726.149V759.75M700.415 726.149H734.016M700.415 759.75V793.351M700.415 759.75H734.016M700.415 793.351V812M700.415 793.351H734.016M734.016 405.427V423.739M734.016 423.739V457.34M734.016 423.739H762.409M734.016 457.34V490.942M734.016 457.34H762.409M734.016 490.942V524.543M734.016 490.942H762.409M734.016 524.543V558.144M734.016 524.543H762.409M734.016 558.144V591.745M734.016 558.144H762.409M734.016 591.745V625.346M734.016 591.745H762.409M734.016 625.346V658.947M734.016 625.346H762.409M734.016 658.947V692.548M734.016 658.947H762.409M734.016 692.548V726.149M734.016 692.548H762.409M734.016 726.149V759.75M734.016 726.149H762.409M734.016 759.75V793.351M734.016 759.75H762.409M734.016 793.351V812M734.016 793.351H762.409M768.168 405.427V423.739M768.168 423.739V457.34M768.168 423.739H739.775M768.168 423.739H801.769M768.168 457.34V490.942M768.168 457.34H739.775M768.168 457.34H801.769M768.168 490.942V524.543M768.168 490.942H739.775M768.168 490.942H801.769M768.168 524.543V558.144M768.168 524.543H739.775M768.168 524.543H801.769M768.168 558.144V591.745M768.168 558.144H739.775M768.168 558.144H801.769M768.168 591.745V625.346M768.168 591.745H739.775M768.168 591.745H801.769M768.168 625.346V658.947M768.168 625.346H739.775M768.168 625.346H801.769M768.168 658.947V692.548M768.168 658.947H739.775M768.168 658.947H801.769M768.168 692.548V726.149M768.168 692.548H739.775M768.168 692.548H801.769M768.168 726.149V759.75M768.168 726.149H739.775M768.168 726.149H801.769M768.168 759.75V793.351M768.168 759.75H739.775M768.168 759.75H801.769M768.168 793.351V812M768.168 793.351H739.775M768.168 793.351H801.769M801.769 405.427V423.739M801.769 423.739V457.34M801.769 423.739H835.37M801.769 457.34V490.942M801.769 457.34H835.37M801.769 490.942V524.543M801.769 490.942H835.37M801.769 524.543V558.144M801.769 524.543H835.37M801.769 558.144V591.745M801.769 558.144H835.37M801.769 591.745V625.346M801.769 591.745H835.37M801.769 625.346V658.947M801.769 625.346H835.37M801.769 658.947V692.548M801.769 658.947H835.37M801.769 692.548V726.149M801.769 692.548H835.37M801.769 726.149V759.75M801.769 726.149H835.37M801.769 759.75V793.351M801.769 759.75H835.37M801.769 793.351V812M801.769 793.351H835.37M835.37 405.427V423.739M835.37 423.739V457.34M835.37 423.739H868.971M835.37 457.34V490.942M835.37 457.34H868.971M835.37 490.942V524.543M835.37 490.942H868.971M835.37 524.543V558.144M835.37 524.543H868.971M835.37 558.144V591.745M835.37 558.144H868.971M835.37 591.745V625.346M835.37 591.745H868.971M835.37 625.346V658.947M835.37 625.346H868.971M835.37 658.947V692.548M835.37 658.947H868.971M835.37 692.548V726.149M835.37 692.548H868.971M835.37 726.149V759.75M835.37 726.149H868.971M835.37 759.75V793.351M835.37 759.75H868.971M835.37 793.351V812M835.37 793.351H868.971M868.971 405.427V423.739M868.971 423.739V457.34M868.971 423.739H902.572M868.971 457.34V490.942M868.971 457.34H902.572M868.971 490.942L868.971 524.543M868.971 490.942H902.572M868.971 524.543V558.144M868.971 524.543H902.572M868.971 558.144V591.745M868.971 558.144H902.572M868.971 591.745V625.346M868.971 591.745H902.572M868.971 625.346V658.947M868.971 625.346H902.572M868.971 658.947V692.548M868.971 658.947H902.572M868.971 692.548V726.149M868.971 692.548H902.572M868.971 726.149V759.75M868.971 726.149H902.572M868.971 759.75V793.351M868.971 759.75H902.572M868.971 793.351V812M868.971 793.351H902.572M902.572 405.427V423.739M902.572 423.739V457.34M902.572 423.739H936.173M902.572 457.34V490.942M902.572 457.34H936.173M902.572 490.942V524.543M902.572 490.942H936.173M902.572 524.543V558.144M902.572 524.543H936.173M902.572 558.144V591.745M902.572 558.144H936.173M902.572 591.745V625.346M902.572 591.745H936.173M902.572 625.346V658.947M902.572 625.346H936.173M902.572 658.947V692.548M902.572 658.947H936.173M902.572 692.548V726.149M902.572 692.548H936.173M902.572 726.149V759.75M902.572 726.149H936.173M902.572 759.75V793.351M902.572 759.75H936.173M902.572 793.351V812M902.572 793.351H936.173M936.173 405.427V423.739M936.173 423.739V457.34M936.173 423.739H969.774M936.173 457.34V490.942M936.173 457.34H969.774M936.173 490.942V524.543M936.173 490.942H969.774M936.173 524.543V558.144M936.173 524.543H969.774M936.173 558.144V591.745M936.173 558.144H969.774M936.173 591.745V625.346M936.173 591.745H969.774M936.173 625.346V658.947M936.173 625.346H969.774M936.173 658.947V692.548M936.173 658.947H969.774M936.173 692.548V726.149M936.173 692.548H969.774M936.173 726.149V759.75M936.173 726.149H969.774M936.173 759.75V793.351M936.173 759.75H969.774M936.173 793.351V812M936.173 793.351H969.774M969.774 405.427V423.739M969.774 423.739V457.34M969.774 423.739H1003.38M969.774 457.34V490.942M969.774 457.34H1003.38M969.774 490.942V524.543M969.774 490.942H1003.38M969.774 524.543V558.144M969.774 524.543H1003.38M969.774 558.144V591.745M969.774 558.144H1003.38M969.774 591.745V625.346M969.774 591.745H1003.38M969.774 625.346V658.947M969.774 625.346H1003.38M969.774 658.947V692.548M969.774 658.947H1003.38M969.774 692.548V726.149M969.774 692.548H1003.38M969.774 726.149V759.75M969.774 726.149H1003.38M969.774 759.75V793.351M969.774 759.75H1003.38M969.774 793.351V812M969.774 793.351H1003.38M1003.38 405.427V423.739M1003.38 423.739V457.34M1003.38 423.739H1036.98M1003.38 457.34V490.942M1003.38 457.34H1036.98M1003.38 490.942V524.543M1003.38 490.942H1036.98M1003.38 524.543V558.144M1003.38 524.543H1036.98M1003.38 558.144V591.745M1003.38 558.144H1036.98M1003.38 591.745L1003.38 625.346M1003.38 591.745H1036.98M1003.38 625.346V658.947M1003.38 625.346H1036.98M1003.38 658.947V692.548M1003.38 658.947H1036.98M1003.38 692.548V726.149M1003.38 692.548H1036.98M1003.38 726.149V759.75M1003.38 726.149H1036.98M1003.38 759.75V793.351M1003.38 759.75H1036.98M1003.38 793.351V812M1003.38 793.351H1036.98M1036.98 405.427V423.739M1036.98 423.739V457.34M1036.98 423.739H1070.58M1036.98 457.34V490.942M1036.98 457.34H1070.58M1036.98 490.942V524.543M1036.98 490.942H1070.58M1036.98 524.543V558.144M1036.98 524.543H1070.58M1036.98 558.144V591.745M1036.98 558.144H1070.58M1036.98 591.745V625.346M1036.98 591.745H1070.58M1036.98 625.346V658.947M1036.98 625.346H1070.58M1036.98 658.947V692.548M1036.98 658.947H1070.58M1036.98 692.548V726.149M1036.98 692.548H1070.58M1036.98 726.149V759.75M1036.98 726.149H1070.58M1036.98 759.75V793.351M1036.98 759.75H1070.58M1036.98 793.351V812M1036.98 793.351H1070.58M1070.58 405.427V423.739M1070.58 423.739V457.34M1070.58 423.739H1104.18M1070.58 457.34V490.942M1070.58 457.34H1104.18M1070.58 490.942V524.543M1070.58 490.942H1104.18M1070.58 524.543V558.144M1070.58 524.543H1104.18M1070.58 558.144V591.745M1070.58 558.144H1104.18M1070.58 591.745V625.346M1070.58 591.745H1104.18M1070.58 625.346V658.947M1070.58 625.346H1104.18M1070.58 658.947V692.548M1070.58 658.947H1104.18M1070.58 692.548V726.149M1070.58 692.548H1104.18M1070.58 726.149V759.75M1070.58 726.149H1104.18M1070.58 759.75V793.351M1070.58 759.75H1104.18M1070.58 793.351V812M1070.58 793.351H1104.18M1104.18 405.427V423.739M1104.18 423.739V457.34M1104.18 423.739H1137.78M1104.18 457.34V490.942M1104.18 457.34H1137.78M1104.18 490.942V524.543M1104.18 490.942H1137.78M1104.18 524.543V558.144M1104.18 524.543H1137.78M1104.18 558.144V591.745M1104.18 558.144H1137.78M1104.18 591.745V625.346M1104.18 591.745H1137.78M1104.18 625.346V658.947M1104.18 625.346H1137.78M1104.18 658.947V692.548M1104.18 658.947H1137.78M1104.18 692.548V726.149M1104.18 692.548H1137.78M1104.18 726.149V759.75M1104.18 726.149H1137.78M1104.18 759.75V793.351M1104.18 759.75H1137.78M1104.18 793.351V812M1104.18 793.351H1137.78M1137.78 405.427V423.739M1137.78 423.739V457.34M1137.78 423.739H1171.38M1137.78 457.34V490.942M1137.78 457.34H1171.38M1137.78 490.942V524.543M1137.78 490.942H1171.38M1137.78 524.543V558.144M1137.78 524.543H1171.38M1137.78 558.144V591.745M1137.78 558.144H1171.38M1137.78 591.745V625.346M1137.78 591.745H1171.38M1137.78 625.346V658.947M1137.78 625.346H1171.38M1137.78 658.947V692.548M1137.78 658.947H1171.38M1137.78 692.548V726.149M1137.78 692.548H1171.38M1137.78 726.149V759.75M1137.78 726.149H1171.38M1137.78 759.75V793.351M1137.78 759.75H1171.38M1137.78 793.351V812M1137.78 793.351H1171.38M1171.38 405.427V423.739M1171.38 423.739V457.34M1171.38 423.739H1204.98M1171.38 457.34V490.942M1171.38 457.34H1204.98M1171.38 490.942V524.543M1171.38 490.942H1204.98M1171.38 524.543V558.144M1171.38 524.543H1204.98M1171.38 558.144V591.745M1171.38 558.144H1204.98M1171.38 591.745V625.346M1171.38 591.745H1204.98M1171.38 625.346V658.947M1171.38 625.346H1204.98M1171.38 658.947V692.548M1171.38 658.947H1204.98M1171.38 692.548V726.149M1171.38 692.548H1204.98M1171.38 726.149V759.75M1171.38 726.149H1204.98M1171.38 759.75V793.351M1171.38 759.75H1204.98M1171.38 793.351V812M1171.38 793.351H1204.98M1204.98 405.427V423.739M1204.98 423.739V457.34M1204.98 423.739H1238.58M1204.98 457.34V490.942M1204.98 457.34H1238.58M1204.98 490.942V524.543M1204.98 490.942H1238.58M1204.98 524.543V558.144M1204.98 524.543H1238.58M1204.98 558.144V591.745M1204.98 558.144H1238.58M1204.98 591.745V625.346M1204.98 591.745H1238.58M1204.98 625.346V658.947M1204.98 625.346H1238.58M1204.98 658.947V692.548M1204.98 658.947H1238.58M1204.98 692.548V726.149M1204.98 692.548H1238.58M1204.98 726.149V759.75M1204.98 726.149H1238.58M1204.98 759.75V793.351M1204.98 759.75H1238.58M1204.98 793.351V812M1204.98 793.351H1238.58M1238.58 405.427V423.739M1238.58 423.739V457.34M1238.58 423.739H1272.18M1238.58 457.34V490.942M1238.58 457.34H1272.18M1238.58 490.942V524.543M1238.58 490.942H1272.18M1238.58 524.543V558.144M1238.58 524.543H1272.18M1238.58 558.144V591.745M1238.58 558.144H1272.18M1238.58 591.745V625.346M1238.58 591.745H1272.18M1238.58 625.346V658.947M1238.58 625.346H1272.18M1238.58 658.947V692.548M1238.58 658.947H1272.18M1238.58 692.548V726.149M1238.58 692.548H1272.18M1238.58 726.149V759.75M1238.58 726.149H1272.18M1238.58 759.75V793.351M1238.58 759.75H1272.18M1238.58 793.351V812M1238.58 793.351H1272.18M1272.18 405.427V423.739M1272.18 423.739V457.34M1272.18 423.739H1305.79M1272.18 457.34V490.942M1272.18 457.34H1305.79M1272.18 490.942V524.543M1272.18 490.942H1305.79M1272.18 524.543V558.144M1272.18 524.543H1305.79M1272.18 558.144V591.745M1272.18 558.144H1305.79M1272.18 591.745V625.346M1272.18 591.745H1305.79M1272.18 625.346V658.947M1272.18 625.346H1305.79M1272.18 658.947V692.548M1272.18 658.947H1305.79M1272.18 692.548V726.149M1272.18 692.548H1305.79M1272.18 726.149V759.75M1272.18 726.149H1305.79M1272.18 759.75V793.351M1272.18 759.75H1305.79M1272.18 793.351V812M1272.18 793.351H1305.79M1305.79 405.427V423.739M1305.79 423.739V457.34M1305.79 423.739H1339.39M1305.79 457.34V490.942M1305.79 457.34H1339.39M1305.79 490.942V524.543M1305.79 490.942H1339.39M1305.79 524.543V558.144M1305.79 524.543H1339.39M1305.79 558.144V591.745M1305.79 558.144H1339.39M1305.79 591.745V625.346M1305.79 591.745H1339.39M1305.79 625.346V658.947M1305.79 625.346H1339.39M1305.79 658.947V692.548M1305.79 658.947H1339.39M1305.79 692.548V726.149M1305.79 692.548H1339.39M1305.79 726.149V759.75M1305.79 726.149H1339.39M1305.79 759.75V793.351M1305.79 759.75H1339.39M1305.79 793.351V812M1305.79 793.351H1339.39M1339.39 405.427V423.739M1339.39 423.739V457.34M1339.39 423.739H1372.99M1339.39 457.34V490.942M1339.39 457.34H1372.99M1339.39 490.942V524.543M1339.39 490.942H1372.99M1339.39 524.543V558.144M1339.39 524.543H1372.99M1339.39 558.144V591.745M1339.39 558.144H1372.99M1339.39 591.745V625.346M1339.39 591.745H1372.99M1339.39 625.346V658.947M1339.39 625.346H1372.99M1339.39 658.947V692.548M1339.39 658.947H1372.99M1339.39 692.548V726.149M1339.39 692.548H1372.99M1339.39 726.149V759.75M1339.39 726.149H1372.99M1339.39 759.75V793.351M1339.39 759.75H1372.99M1339.39 793.351V812M1339.39 793.351H1372.99M1372.99 405.427V423.739M1372.99 423.739V457.34M1372.99 423.739H1406.59M1372.99 457.34V490.942M1372.99 457.34H1406.59M1372.99 490.942V524.543M1372.99 490.942H1406.59M1372.99 524.543V558.144M1372.99 524.543H1406.59M1372.99 558.144V591.745M1372.99 558.144H1406.59M1372.99 591.745V625.346M1372.99 591.745H1406.59M1372.99 625.346V658.947M1372.99 625.346H1406.59M1372.99 658.947V692.548M1372.99 658.947H1406.59M1372.99 692.548V726.149M1372.99 692.548H1406.59M1372.99 726.149V759.75M1372.99 726.149H1406.59M1372.99 759.75V793.351M1372.99 759.75H1406.59M1372.99 793.351V812M1372.99 793.351H1406.59M1406.59 405.427V423.739M1406.59 423.739V457.34M1406.59 423.739H1440.19M1406.59 457.34V490.942M1406.59 457.34H1440.19M1406.59 490.942V524.543M1406.59 490.942H1440.19M1406.59 524.543V558.144M1406.59 524.543H1440.19M1406.59 558.144V591.745M1406.59 558.144H1440.19M1406.59 591.745V625.346M1406.59 591.745H1440.19M1406.59 625.346V658.947M1406.59 625.346H1440.19M1406.59 658.947V692.548M1406.59 658.947H1440.19M1406.59 692.548V726.149M1406.59 692.548H1440.19M1406.59 726.149V759.75M1406.59 726.149H1440.19M1406.59 759.75V793.351M1406.59 759.75H1440.19M1406.59 793.351V812M1406.59 793.351H1440.19M1440.19 405.427V423.739M1440.19 423.739V457.34M1440.19 423.739H1473.79M1440.19 457.34V490.942M1440.19 457.34H1473.79M1440.19 490.942V524.543M1440.19 490.942H1473.79M1440.19 524.543V558.144M1440.19 524.543H1473.79M1440.19 558.144V591.745M1440.19 558.144H1473.79M1440.19 591.745V625.346M1440.19 591.745H1473.79M1440.19 625.346V658.947M1440.19 625.346H1473.79M1440.19 658.947V692.548M1440.19 658.947H1473.79M1440.19 692.548V726.149M1440.19 692.548H1473.79M1440.19 726.149V759.75M1440.19 726.149H1473.79M1440.19 759.75V793.351M1440.19 759.75H1473.79M1440.19 793.351V812M1440.19 793.351H1473.79M1473.79 405.427V423.739M1473.79 423.739V457.34M1473.79 423.739H1502.18M1473.79 457.34V490.942M1473.79 457.34H1502.18M1473.79 490.942V524.543M1473.79 490.942H1502.18M1473.79 524.543V558.144M1473.79 524.543H1502.18M1473.79 558.144V591.745M1473.79 558.144H1502.18M1473.79 591.745V625.346M1473.79 591.745H1502.18M1473.79 625.346V658.947M1473.79 625.346H1502.18M1473.79 658.947V692.548M1473.79 658.947H1502.18M1473.79 692.548V726.149M1473.79 692.548H1502.18M1473.79 726.149V759.75M1473.79 726.149H1502.18M1473.79 759.75V793.351M1473.79 759.75H1502.18M1473.79 793.351V812M1473.79 793.351H1502.18" stroke="url(#paint0_radial_2579_785)" stroke-opacity="0.05" stroke-width="0.500728"/>
<defs>
<radialGradient id="paint0_radial_2579_785" cx="0" cy="0" r="1" gradientUnits="userSpaceOnUse" gradientTransform="translate(751.092 406) rotate(90) scale(406 751.092)">
<stop stop-color="white" stop-opacity="0"/>
<stop offset="0.665173" stop-color="white"/>
</radialGradient>
</defs>
</svg>
