<svg width="865" height="498" viewBox="0 0 865 498" fill="none" xmlns="http://www.w3.org/2000/svg">
<path d="M9.87392 498C7.34215 498 4.81037 497.038 2.88622 495.114C-0.962074 491.266 -0.962074 484.987 2.88622 481.138L111.601 372.424V267.71C111.601 265.077 112.664 262.596 114.487 260.722L192.769 182.44C194.643 180.617 197.124 179.553 199.757 179.553H359.158L428.629 110.082C430.503 108.208 432.984 107.195 435.617 107.195H743.38L847.739 2.88622C851.588 -0.962074 857.816 -0.962074 861.664 2.88622C865.512 6.73452 865.512 12.9627 861.664 16.811L754.469 124.006C752.595 125.88 750.114 126.943 747.481 126.943H439.719L370.196 196.415C368.373 198.289 365.841 199.301 363.208 199.301H203.808L131.348 271.811V376.526C131.348 379.108 130.285 381.64 128.462 383.463L16.8616 495.114C14.9375 497.038 12.4057 498 9.87392 498Z" fill="#BC5AD7"/>
</svg>
